<svg id="Capa_1" data-name="Capa 1" xmlns="http://www.w3.org/2000/svg" viewBox="0 0 56.75 54.39"><defs><style>.cls-1{fill:#88c057;}.cls-2{fill:#659c35;}.cls-3{fill:#436b1c;}</style></defs><title>broccoli</title><path class="cls-1" d="M45.15,13.7a2.64,2.64,0,0,0-1.39-2.31,6,6,0,0,0,.62-2.63A6.13,6.13,0,0,0,38.19,2.7a6.23,6.23,0,0,0-2.5.52,5.06,5.06,0,0,0-8.46.51,5.83,5.83,0,0,0-3.33-1,5.74,5.74,0,0,0-5.79,5.69,5.65,5.65,0,0,0,0,.69,5.64,5.64,0,0,0-1.4,10.07,4.85,4.85,0,0,0-1,2.9,5,5,0,0,0,5,4.93,5.06,5.06,0,0,0,3.08-1,6.23,6.23,0,0,0,10.25-.27,4.26,4.26,0,0,0,3.67,2.07,4.21,4.21,0,0,0,4.25-4.17,4.09,4.09,0,0,0-.28-1.47,4.17,4.17,0,0,0,2.59-3.84A4.09,4.09,0,0,0,43.72,16,2.64,2.64,0,0,0,45.15,13.7Z" transform="translate(0 -1.18)"/><path class="cls-2" d="M22.83,26.54a5,5,0,0,1-7-4.5,4.85,4.85,0,0,1,1-2.9,5.66,5.66,0,0,1-2.51-4.69,5.57,5.57,0,0,1,.65-2.61,4.29,4.29,0,0,0-5.61,1,4.37,4.37,0,0,0-4.93.81,4.18,4.18,0,0,0-1.19,3.76,3.73,3.73,0,0,0-2.06,1,3.62,3.62,0,0,0,0,5.19,3.73,3.73,0,0,0,2.18,1,4.46,4.46,0,0,0,1.28,3.95,4.64,4.64,0,0,0,4.26,1.21,3.07,3.07,0,0,0,.82,3,3.2,3.2,0,0,0,4.47,0,3.09,3.09,0,0,0,.64-.91,3.2,3.2,0,0,0,3.42-.68A3.07,3.07,0,0,0,19,29.71a2,2,0,0,0,2-.49,1.94,1.94,0,0,0,.5-1.93A4.67,4.67,0,0,0,22.83,26.54Z" transform="translate(0 -1.18)"/><path class="cls-2" d="M55.48,19.25a4.21,4.21,0,0,0-.4-.34,4.18,4.18,0,0,0-.82-4.85,4.35,4.35,0,0,0-3.83-1.17,3.62,3.62,0,0,0-1-2,3.78,3.78,0,0,0-5.28,0,3.58,3.58,0,0,0-.26.3c0,.07-.06.15-.1.22a2.61,2.61,0,0,1,0,4.64,4.1,4.1,0,0,1,.66,2.22,4.17,4.17,0,0,1-2.59,3.84,4.09,4.09,0,0,1,.28,1.47,4.21,4.21,0,0,1-4.25,4.17,4.28,4.28,0,0,1-1.55-.3c.05.06.08.13.14.18a3.16,3.16,0,0,0,1.54.83,1.94,1.94,0,0,0,.49,2,2,2,0,0,0,2,.5,4.47,4.47,0,0,0,1.08,1.7,4.65,4.65,0,0,0,6.5,0A4.48,4.48,0,0,0,49,31a3.77,3.77,0,0,0,3.23-1,3.62,3.62,0,0,0,.95-3.61,4.31,4.31,0,0,0,2.3-1.17A4.18,4.18,0,0,0,55.48,19.25Z" transform="translate(0 -1.18)"/><path class="cls-3" d="M40.39,30.92a2,2,0,0,1-2-.5,1.92,1.92,0,0,1-.56-1.1,1.77,1.77,0,0,0-.22-.64C33.72,32.73,31,40.18,31,40.18a31.44,31.44,0,0,0,.69-12.32,6.21,6.21,0,0,1-5.44,0C28,34.07,27,44.18,27,44.18A29.76,29.76,0,0,0,19,30.12a1.33,1.33,0,0,0-.35.39,3.09,3.09,0,0,1-.54.71,3.2,3.2,0,0,1-3.42.68,3.09,3.09,0,0,1-.64.91,3.15,3.15,0,0,1-1.13.71c5,0,10.78,10,11.52,20.65A1.5,1.5,0,0,0,26,55.57h5a1.51,1.51,0,0,0,1.5-1.34c.46-4.06,1.88-21,9.75-21a4.64,4.64,0,0,1-.76-.6A4.51,4.51,0,0,1,40.39,30.92Z" transform="translate(0 -1.18)"/><path class="cls-2" d="M23.47,15.18a1,1,0,0,1-.36-.07A4.9,4.9,0,0,1,26.67,6a1,1,0,0,1-.73,1.86,2.9,2.9,0,0,0-2.11,5.41,1,1,0,0,1-.36,1.93Z" transform="translate(0 -1.18)"/><path class="cls-1" d="M49.08,25.65a4.91,4.91,0,0,1-4.49-2.94,1,1,0,0,1,1.83-.8,2.9,2.9,0,1,0,5.32-2.33,1,1,0,0,1,1.83-.8,4.9,4.9,0,0,1-2.52,6.46A4.93,4.93,0,0,1,49.08,25.65Z" transform="translate(0 -1.18)"/><path class="cls-2" d="M35.39,23.17a4.9,4.9,0,0,1-4.27-2.49,1,1,0,1,1,1.74-1,2.9,2.9,0,1,0,5.05-2.86,1,1,0,1,1,1.74-1,4.9,4.9,0,0,1-4.26,7.31Z" transform="translate(0 -1.18)"/><path class="cls-2" d="M31.88,17.78a4.9,4.9,0,0,1-4.41-7,1,1,0,0,1,1.8.87,2.9,2.9,0,1,0,5.22,2.53,1,1,0,1,1,1.8.87A4.91,4.91,0,0,1,31.88,17.78Z" transform="translate(0 -1.18)"/><path class="cls-2" d="M24.28,23.39a4.91,4.91,0,0,1-4.49-6.87,1,1,0,1,1,1.83.8,2.9,2.9,0,0,0,5.32,2.32,1,1,0,1,1,1.83.8,4.92,4.92,0,0,1-4.49,2.94Z" transform="translate(0 -1.18)"/><path class="cls-2" d="M35.4,12.48l-.48,0a4.87,4.87,0,0,1-3.31-1.76,1,1,0,1,1,1.54-1.27,2.9,2.9,0,1,0,4.48-3.69,1,1,0,1,1,1.54-1.27,4.9,4.9,0,0,1-3.77,8Z" transform="translate(0 -1.18)"/><path class="cls-1" d="M9.88,24.55A4.9,4.9,0,0,1,5.35,17.8a1,1,0,1,1,1.85.75,2.9,2.9,0,0,0,5.38,2.18,1,1,0,1,1,1.85.75A4.91,4.91,0,0,1,9.88,24.55Z" transform="translate(0 -1.18)"/></svg>