<svg id="Layer_1" data-name="Layer 1" xmlns="http://www.w3.org/2000/svg" viewBox="0 0 512 512"><defs><style>.cls-1{fill:#56c225;}.cls-2{fill:#49a520;}.cls-3{fill:#70da40;}.cls-4{fill:#90e36a;}</style></defs><title>cabbage</title><path class="cls-1" d="M386.8,79.9,256,151,125.2,79.9C140.2,33.4,194.2,0,256,0S371.8,33.4,386.8,79.9Z" transform="translate(0)"/><path class="cls-2" d="M386.8,79.9,256,151V0C317.8,0,371.8,33.4,386.8,79.9Z" transform="translate(0)"/><path class="cls-3" d="M512,256c0,20.1-13,48.9-69.4,72.9l-.9,4.5C427.6,404.5,379,464,311.5,491h-111C133,464,84.4,404.5,70.3,333.4l-.9-4.5C13,304.9,0,276.1,0,256c0-17.7,10.6-43.5,55.9-66.6a9.39,9.39,0,0,0,5.1-8.1c0-32.1,12.3-62.4,35.1-84.9,42-42.3,114-45.9,159.9-9,36.3-28.8,93.9-39.9,150.9-2.4,29.1,19.2,44.7,53.1,44.1,96a9,9,0,0,0,5.1,8.4C501.4,212.5,512,238.3,512,256Z" transform="translate(0)"/><path class="cls-1" d="M512,256c0,20.1-13,48.9-69.4,72.9l-.9,4.5C427.6,404.5,379,464,311.5,491H256V87.4c36.3-28.8,93.9-39.9,150.9-2.4,29.1,19.2,44.7,53.1,44.1,96a9,9,0,0,0,5.1,8.4C501.4,212.5,512,238.3,512,256Z" transform="translate(0)"/><path class="cls-4" d="M421,241a91,91,0,0,1-28.2,65.7A99.91,99.91,0,0,0,361,379.9V388c0,35.1-13.5,68.8-38.1,93.4-1.8,1.8-28.5,25.2-30.3,27l-25.5-9H244.9l-25.5,9c-1.8-1.8-28.5-25.2-30.3-27C164.5,456.8,151,423.1,151,388v-8.1a99.89,99.89,0,0,0-31.8-73.2A91,91,0,0,1,91,241c0-41.7,29.1-77.7,69.3-87.3a104.38,104.38,0,0,1,191.4,0C391.9,163.3,421,199.3,421,241Z" transform="translate(0)"/><path class="cls-3" d="M421,241a91,91,0,0,1-28.2,65.7A99.91,99.91,0,0,0,361,379.9V388c0,35.1-13.5,68.8-38.1,93.4-1.8,1.8-28.5,25.2-30.3,27l-25.5-9H256V91a104.57,104.57,0,0,1,95.7,62.7C391.9,163.3,421,199.3,421,241Z" transform="translate(0)"/><path class="cls-3" d="M361,226a14.85,14.85,0,0,1-15,15,57,57,0,0,0-40.5,16.8l-31.8,31.8c26.39,66.3,34.8,139.3,23.4,209.8l-.6,3.6a10.89,10.89,0,0,1-10.5,9H226a10.89,10.89,0,0,1-10.5-9l-.6-3.6c-11.4-70.5-3-143.5,23.4-209.8l-31.8-31.8A57,57,0,0,0,166,241a15,15,0,0,1,0-30,87.92,87.92,0,0,1,61.8,25.5L241,249.7V166a15,15,0,0,1,30,0v83.7l13.2-13.2A87.92,87.92,0,0,1,346,211,14.85,14.85,0,0,1,361,226Z" transform="translate(0)"/><path class="cls-1" d="M361,226a14.85,14.85,0,0,1-15,15,57,57,0,0,0-40.5,16.8l-31.8,31.8c26.39,66.3,34.8,139.3,23.4,209.8l-.6,3.6a10.89,10.89,0,0,1-10.5,9H256V151a14.85,14.85,0,0,1,15,15v83.7l13.2-13.2A87.92,87.92,0,0,1,346,211,14.85,14.85,0,0,1,361,226Z" transform="translate(0)"/></svg>