<svg id="Layer_1" data-name="Layer 1" xmlns="http://www.w3.org/2000/svg" viewBox="0 0 512 512"><defs><style>.cls-1{fill:#fdbf00;}.cls-2{fill:#ff9f00;}.cls-3{fill:#ffd400;}</style></defs><title>chakra</title><path class="cls-1" d="M0,241H76v30H0Z"/><path class="cls-1" d="M118.12,372.67l21.21,21.21-53,53L65.09,425.7Z"/><path class="cls-1" d="M86.3,65.09l53,53-21.21,21.21-53-53Z"/><path class="cls-2" d="M436,241h76v30H436Z"/><path class="cls-2" d="M425.7,65.09,446.91,86.3l-53,53-21.21-21.21Z"/><path class="cls-2" d="M393.89,372.67l53,53L425.7,446.91l-53-53Z"/><path class="cls-1" d="M241,0h30V76H241Z"/><path class="cls-2" d="M256,0h15V76H256Z"/><path class="cls-1" d="M241,436h30v76H241Z"/><path class="cls-2" d="M256,436h15v76H256Z"/><path class="cls-1" d="M256,61C148.6,61,61,148.6,61,256s87.6,195,195,195,195-87.6,195-195S363.4,61,256,61Z"/><path class="cls-2" d="M451,256c0,107.4-87.6,195-195,195V61C363.4,61,451,148.6,451,256Z"/><path class="cls-3" d="M256,91C165.1,91,91,165.1,91,256s74.1,165,165,165,165-74.1,165-165S346.9,91,256,91Z"/><path class="cls-1" d="M421,256c0,90.9-74.1,165-165,165V91C346.9,91,421,165.1,421,256Z"/><path class="cls-1" d="M361.9,282.1c-8.1,48.6-54.6,81.9-103.2,73.8-.9-.3-1.8-.3-2.7-.6-39.3-8.1-65.1-45.9-58.8-85.5A60.81,60.81,0,0,1,222.7,229c10.2-7.2,21.6-11.4,33.3-11.7a68,68,0,0,1,13.5.6,53.54,53.54,0,0,1,43.8,61.5l-29.7-5.1a22.62,22.62,0,0,0-3.9-17.4,23.54,23.54,0,0,0-15-9.3,28.48,28.48,0,0,0-8.7-.3,32.77,32.77,0,0,0-29.1,27.3A44.83,44.83,0,0,0,256,324.1a54.19,54.19,0,0,0,7.5,2.1,59.86,59.86,0,0,0,69-49.2A78.39,78.39,0,0,0,268,186.7a80.58,80.58,0,0,0-12-.9c-50.7-2.7-96.6,33.3-105.3,84.6-9.3,60,15.3,94.5,37.2,112.8,18.6,15.9,42.6,25.8,68.1,29.1a151.8,151.8,0,0,0,70.2-6.9l9.9,28.2a175.49,175.49,0,0,1-59.4,10.2,159.25,159.25,0,0,1-20.7-1.2c-32.4-3.6-63-16.2-87.3-36.3-39.6-33-56.7-82.5-47.7-138.9,11.4-67.8,69.9-114.3,135-111.9a159.15,159.15,0,0,1,16.8,1.8,108,108,0,0,1,89.1,124.8Z"/><path class="cls-2" d="M326.2,405.4l9.9,28.2a175.49,175.49,0,0,1-59.4,10.2,159.25,159.25,0,0,1-20.7-1.2V412.3A151.78,151.78,0,0,0,326.2,405.4Z"/><path class="cls-2" d="M264.7,247.6a28.59,28.59,0,0,0-8.7-.3v-30a68,68,0,0,1,13.5.6,53.54,53.54,0,0,1,43.8,61.5l-29.7-5.1a22.62,22.62,0,0,0-3.9-17.4A23.56,23.56,0,0,0,264.7,247.6Z"/><path class="cls-2" d="M361.9,282.1c-8.1,48.6-54.6,81.9-103.2,73.8-.9-.3-1.8-.3-2.7-.6V324.1a54.19,54.19,0,0,0,7.5,2.1,59.86,59.86,0,0,0,69-49.2A78.39,78.39,0,0,0,268,186.7a80.58,80.58,0,0,0-12-.9V155.5a159.22,159.22,0,0,1,16.8,1.8,108,108,0,0,1,89.1,124.8Z"/></svg>