<svg id="Capa_1" data-name="Capa 1" xmlns="http://www.w3.org/2000/svg" viewBox="0 0 512 429.42"><defs><style>.cls-1{fill:#fff082;}.cls-2{fill:#ffdc64;}.cls-3{fill:#e1a546;}.cls-4{fill:#ffc850;}</style></defs><title>cheese</title><path class="cls-1" d="M512,173.42,253,50.72a100.44,100.44,0,0,0-50.76-9.11C51.3,53.67,0,159.77,0,206.45H512Z" transform="translate(0 -41.29)"/><path class="cls-2" d="M505.15,314.52a8.37,8.37,0,0,0,6.85-8.1v-133H33a33,33,0,0,0-33,33V437.68a33,33,0,0,0,33,33h168a8.17,8.17,0,0,0,7.72-5.45,41.3,41.3,0,0,1,77.91,0,8.17,8.17,0,0,0,7.72,5.45H503.74a8.26,8.26,0,0,0,8.26-8.26V387.26a8.37,8.37,0,0,0-6.85-8.1,33,33,0,0,1,0-64.64Z" transform="translate(0 -41.29)"/><circle class="cls-3" cx="421.16" cy="214.71" r="16.52"/><circle class="cls-3" cx="206.45" cy="330.32" r="16.52"/><circle class="cls-4" cx="82.58" cy="355.1" r="24.77"/><path class="cls-3" d="M82.58,371.61A24.74,24.74,0,0,0,60,386.23a24.69,24.69,0,0,1,32.71,32.71,24.74,24.74,0,0,0-10.16-47.32Z" transform="translate(0 -41.29)"/><circle class="cls-4" cx="297.29" cy="198.19" r="24.77"/><path class="cls-3" d="M297.29,214.71a24.74,24.74,0,0,0-22.55,14.61A24.69,24.69,0,0,1,307.45,262a24.74,24.74,0,0,0-10.16-47.32Z" transform="translate(0 -41.29)"/><circle class="cls-4" cx="132.13" cy="231.23" r="41.29"/><path class="cls-3" d="M132.13,231.23A41.12,41.12,0,0,0,96,252.91a40.83,40.83,0,0,1,19.61-5.16A41.29,41.29,0,0,1,156.9,289a40.82,40.82,0,0,1-5.16,19.61,41.16,41.16,0,0,0-19.61-77.42Z" transform="translate(0 -41.29)"/><circle class="cls-4" cx="355.1" cy="330.32" r="41.29"/><path class="cls-3" d="M355.1,330.32A41.11,41.11,0,0,0,319,352a40.83,40.83,0,0,1,19.61-5.17,41.29,41.29,0,0,1,41.29,41.29,40.82,40.82,0,0,1-5.17,19.61,41.16,41.16,0,0,0-19.61-77.42Z" transform="translate(0 -41.29)"/><path class="cls-4" d="M0,214.71H0a33,33,0,0,1,33,33V396.39a49.55,49.55,0,0,0,49.55,49.55H194.06a12.39,12.39,0,0,1,12.39,12.39h0a12.39,12.39,0,0,1-12.39,12.39H33a33,33,0,0,1-33-33Z" transform="translate(0 -41.29)"/></svg>