<svg id="Capa_1" data-name="Capa 1" xmlns="http://www.w3.org/2000/svg" viewBox="0 0 482.92 512"><defs><style>.cls-1{fill:#fe9923;}.cls-2{fill:#fd003a;}.cls-3{fill:#e50027;}.cls-4{fill:#fedb41;}.cls-5{fill:#fcbf29;}.cls-6{fill:#fea832;}.cls-7{fill:#713708;}</style></defs><title>chicken</title><path class="cls-1" d="M420.21,168.49l-21.91-58.2a15,15,0,0,1,14-20.29h67.21a15,15,0,0,1,15,15,75,75,0,0,1-56.62,72.74A15,15,0,0,1,420.21,168.49Z" transform="translate(-14.54)"/><path class="cls-2" d="M344.54,0a60,60,0,0,0-52.2,30.6,59.94,59.94,0,0,0-38.4,111,59.3,59.3,0,0,0,30.6,8.4c13.8,0,29.4-3.3,30-17.1,1.5-32.7,36.3-51.9,63.3-39a15.14,15.14,0,0,0,19.8-6.3,57.93,57.93,0,0,0,6.9-27.6A60.18,60.18,0,0,0,344.54,0Z" transform="translate(-14.54)"/><path class="cls-3" d="M404.54,60a57.94,57.94,0,0,1-6.9,27.6,15.14,15.14,0,0,1-19.8,6.3c-27-12.9-61.8,6.3-63.3,39-.6,13.8-16.2,17.1-30,17.1a59.3,59.3,0,0,1-30.6-8.4V38.4a60,60,0,0,1,38.4-7.8A59.93,59.93,0,0,1,404.54,60Z" transform="translate(-14.54)"/><path class="cls-4" d="M481.34,248.9,426.44,99.6c-8.1-18.9-36.3-39.6-66.9-39.6a75.07,75.07,0,0,0-75,72.3v81.2l30,13.5a16.15,16.15,0,0,1-1.5,6.3,13.34,13.34,0,0,1-8.1,7.5c-1.8.9-33.6,31.2-35.4,31.2h-93.9l-29.4-30h-8.1a14.74,14.74,0,0,1-13.5-8.1l-11.4-23.1a52.1,52.1,0,0,0-98.7,23.4V257c0,123.6,68.4,255,195,255h89.1C453.14,512,534.14,391.1,481.34,248.9Z" transform="translate(-14.54)"/><path class="cls-5" d="M298.64,512h-44.7V272h15.6c1.8,0,33.6-30.3,35.4-31.2a13.34,13.34,0,0,0,8.1-7.5,16.14,16.14,0,0,0,1.5-6.3l-30-13.5V132.3a75.07,75.07,0,0,1,75-72.3c30.6,0,58.8,20.7,66.9,39.6l54.9,149.3C534.14,391.1,453.14,512,298.64,512Z" transform="translate(-14.54)"/><path class="cls-6" d="M374.54,317c0,69.6-52.8,126.9-120.6,134.4-4.8.3-9.6.6-14.4.6h-30c-32.1,0-53.7-32.4-41.7-61.5-26.1-7.2-40.2-35.4-30-60-50.7-14.4-40.2-88.5,11.7-88.5h120a11.78,11.78,0,0,0,5.4-1.2,13.34,13.34,0,0,0,8.1-7.5,16.14,16.14,0,0,0,1.5-6.3V212.3c26.4-.6,52.2,12,69.3,32.4h.3C374.24,269.3,374.54,289.4,374.54,317Z" transform="translate(-14.54)"/><path class="cls-7" d="M374.54,135a15,15,0,1,1-15-15A14.85,14.85,0,0,1,374.54,135Z" transform="translate(-14.54)"/><path class="cls-1" d="M374.54,317c0,69.6-52.8,126.9-120.6,134.4V242h15.6a11.78,11.78,0,0,0,5.4-1.2,13.34,13.34,0,0,0,8.1-7.5,16.14,16.14,0,0,0,1.5-6.3V212.3c26.4-.6,52.2,12,69.3,32.4h.3C374.24,269.3,374.54,289.4,374.54,317Z" transform="translate(-14.54)"/></svg>