<svg id="Capa_1" data-name="Capa 1" xmlns="http://www.w3.org/2000/svg" viewBox="0 0 426.49 512"><defs><style>.cls-1{fill:#fee2c9;}.cls-2{fill:#efcaac;}.cls-3{fill:#f2f1e7;}.cls-4{fill:#d2d2ca;}.cls-5{fill:#db3333;}</style></defs><title>cooker</title><path class="cls-1" d="M121.33,230.8c-3.81,7.15-1.28,17.73,6.35,20.47,3.19,1.15,6.73.85,10,1.69,9.49,2.41,14,12.87,18.66,21.48,10.23,18.86,27.19,33.7,46.66,42.71,21.53,10,54.09,17.42,76.53,7.33,16.2-7.28,32.56-14.89,46.39-26.23,6.43-5.28,13.47-11.25,16.26-19,2.56-7.14,1.7-16.81,9.58-20.92,5-2.61,11.17-.83,16.71-2a16,16,0,0,0,6.14-28.59c-3.45-2.49-7.75-3.51-11.36-5.76-8.11-5.06-11.24-15.17-17.16-22.68-10.44-13.26-28.55-17.37-45.29-19.48a375.24,375.24,0,0,0-117.14,3.74c-7.2,1.38-14.81,3.21-19.92,8.46-7.82,8-7.93,22.12-19.38,26.87C135.51,222.6,126.84,220.46,121.33,230.8Z" transform="translate(-42.75 0)"/><path class="cls-2" d="M322.91,304.1c-14.84,7.36-38.31,20.78-54.94,12.52-26.63-13.23-54.87-20.55-70.86-48.12-8.7-15-16.84-43.88-9.79-61.07,7.56-18.45,45.05-20.42,61.39-19.7,23.29,1,45.89,7.77,68.47,13.54,6.45,1.65,15.28,2.1,17.69-4.11,1.46-3.76-.7-8.16-4-10.52s-7.39-3.15-11.37-3.82A393.92,393.92,0,0,0,232.77,178c-19.83,1.09-52.25,0-67.71,15.35-5.07,5.05-6.16,13.14-11,18.46-5.51,6-14.3,7.24-21.89,10.19s-15.25,10.27-12.82,18c2.65,8.48,14.1,9.36,21.7,14,10.27,6.23,13.22,19.41,18.56,30.17,5.08,10.23,13.63,17.7,19.77,27.11a93.33,93.33,0,0,0,22.85,24.27c18.34,13.52,41.67,20.55,64.43,18.08,13.52-1.46,26.9-6.1,37.46-14.67S322.12,317.67,322.91,304.1Z" transform="translate(-42.75 0)"/><path class="cls-2" d="M366.26,230.75c-4.43-1.39-9.53,3.08-8.75,7.65s7.09,7.08,10.8,4.29,3.07-9.54-1.1-11.57" transform="translate(-42.75 0)"/><path class="cls-2" d="M238.16,258.73a10.51,10.51,0,0,1,.35-17.6c1.95-1.22,4.69-1.69,6.44-.19,2.73,2.34.95,7.2,3.11,10.08,1.78,2.38,5.27,2.3,8.2,2.83s6.22,3.29,4.82,5.91a4.94,4.94,0,0,1-2.81,2,20,20,0,0,1-20.7-4.63" transform="translate(-42.75 0)"/><path class="cls-3" d="M192.73,14.58c-10.69.56-21.65,4.24-28.86,12.15-4.75,5.21-7.65,12-12.7,16.89-8.86,8.64-23.56,11-29.49,21.82-8.27,15.12,6.62,35-.57,50.64-3.17,6.9-10.44,12.41-10.11,20,.28,6.34,5.89,11.06,11.44,14.14s11.8,5.66,15.32,10.93c6,8.92,2.3,22.93,10.57,29.76,5.89,4.87,14.59,3.23,22,1.37,29.08-7.29,58.53-13.91,88.48-15.23s60.66,2.89,87.46,16.34c4.87,2.44,11,5.11,15.34,1.76,2.48-1.93,3.35-5.25,3.82-8.36a61.48,61.48,0,0,0-4.17-33c10.65-4.37,21.7-9.21,28.89-18.21s8.95-23.42.74-31.49c-2.72-2.68-6.51-4.79-7.38-8.51-1.08-4.57,2.8-8.61,5.14-12.69,6.65-11.6-1.44-28.7-14.62-30.93-5.71-1-12,.4-17.08-2.32-6.36-3.37-8.2-11.37-11.42-17.81a37.52,37.52,0,0,0-35-20.19c-7.89.48-15.74,3.5-23.51,2.05-7.15-1.33-13.12-6.28-20.1-8.33C250.82.59,241.8,11.82,228.26,16.82,218,20.6,204,14,192.73,14.58Z" transform="translate(-42.75 0)"/><path class="cls-3" d="M129.32,339.74A210.37,210.37,0,0,0,51,458.48c-1.76,7.3-5,15.19-4.32,22.83,1,12.36,9.21,10.3,19,10.57,118.2,3.23,236.8,22.51,354.94,7.86,4.89-.61,10-2.25,14.85-2.58,5.85-.41,11.11,1.43,17-.39C467.79,492,466.89,472,464.56,459.1c-5.85-32.44-24-61.65-46.51-85.73s-49.36-43.61-76-63c-3.53-2.56-7.67-5.26-11.92-4.3s-6.71,5-9.09,8.56c-16.05,24-45.11,38.76-74,37.51-27.44-1.19-47.86-15.39-63.39-36.78-5.68-7.82-9.68-11.35-18-4.65C153.54,320.38,141.82,330.48,129.32,339.74Z" transform="translate(-42.75 0)"/><path class="cls-4" d="M338.54,98.11c-18.3-3.66-36.94,4.87-55.58,4.05a56.44,56.44,0,0,1-41.78-21.84C234,70.92,230,59.56,225.35,48.72S214.79,27,205.15,20.15s-24-8.31-32.85-.52c-8.23,7.21-10.14,20.39-19.58,25.92-4.78,2.8-10.61,3-15.76,5.08-8.44,3.34-14.42,11.48-16.62,20.29s-1,18.19,1.78,26.83c1.44,4.47,3.33,9.13,2.29,13.7-1.65,7.26-9.85,11.15-12.9,17.94-4.06,9,3,20,12.28,23.44s19.65,1.31,29.1-1.63c28.71-8.94,55.76-25.24,85.8-26.51,13.85-.58,27.62,2.1,41.12,5.22q23.79,5.48,47.13,12.77c11.15,3.48,24.79,10.5,36.3,4.26C388.71,133.12,355.29,101.46,338.54,98.11Z" transform="translate(-42.75 0)"/><path class="cls-4" d="M149.86,148.28c-3.46,1.13-7.2,2.55-9,5.72a15,15,0,0,0-1.38,6.47c-.47,7.54-.92,15.25,1.22,22.49,1,3.31,2.86,6.79,6.17,7.76a12.36,12.36,0,0,0,4.69.13l96.19-9.7c3.45-.35,7.41-1,9.17-4,1.08-1.83,1-4.1.94-6.22-.27-7.12,0-15.19,5.26-20,4.64-4.21,28-7.32,20.86-16.68-5.62-7.37-31.06-3.54-38.46-3.23A357.67,357.67,0,0,0,149.86,148.28Z" transform="translate(-42.75 0)"/><path class="cls-4" d="M47.6,475.54c-1,5.7-1.26,12.57,3.27,16.17,2.57,2,6.06,2.43,9.34,2.67,34.68,2.54,69.54-1.23,104.27.48,18,.89,35.85,3.24,53.77,5,71.42,6.81,143.42,3.35,214.91-2.66,9.72-.82,21.68-3.47,24.07-12.93,1.48-5.83-1.78-12.06-6.54-15.73s-10.77-5.27-16.64-6.54c-47.44-10.23-97.32-3.94-144.64-14.7-13.34-3-26.54-7.49-37.91-15.1s-20.84-18.62-24.69-31.74c-4.47-15.25-1.3-32.54-8.66-46.62-5.16-9.87-14.7-16.55-23.88-22.84L178,319.77c-2.33-1.59-4.72-3.22-7.47-3.86-10.18-2.38-21.07,11.4-29.15,16.71a213,213,0,0,0-33.26,27,218,218,0,0,0-47.22,70.15A207.59,207.59,0,0,0,47.6,475.54Z" transform="translate(-42.75 0)"/><path class="cls-5" d="M163,471.42c.3,8,.72,16.31,4.87,23.1s13.39,11.18,20.33,7.28c.78-14.86,0-29.76-1-44.61-3.15-48.27-8.47-96.55-6.58-144.89.61-15.52-18.31-1.15-21.51,5.85-5.3,11.59-.79,30.7-.33,42.89Q160.9,416.22,163,471.42Z" transform="translate(-42.75 0)"/><path class="cls-5" d="M317.46,503c5.87.86,11.69-2.72,15.12-7.57s4.89-10.77,6.11-16.58c7.57-36,8.27-73,8.93-109.7q.3-16.61.61-33.23c.2-10.83-.92-29.45-15.4-30.66-14.08-1.18-9.31,26.25-9.63,35.28q-1.84,52-3.68,104.09C319.35,449.56,316.53,502.83,317.46,503Z" transform="translate(-42.75 0)"/><path d="M469.11,480.2c-.43-6.8-1.14-13.61-2.14-20.35-1.9-12.78-5.65-25.73-9.91-37.92-8-22.78-24.42-43-42-59.16-10.53-9.71-22.15-18.09-33.71-26.49-5.58-4-11.07-8.19-16.9-11.86-5-3.17-10.35-6-15.1-9.64a17.64,17.64,0,0,0-1.67-3.4c-3.85-6.06-10.62-10-17.32-12.83q1.14-1.23,2.25-2.51a239.31,239.31,0,0,0,15.86-21,62.3,62.3,0,0,0,5.92-10.25c.42-1,1-3.55,2-3.92s4.26,1.25,5.44,1.38c15.86,1.73,28.37-15.79,24.58-30.48a21.68,21.68,0,0,0-12.73-14.36,27,27,0,0,0-5.31-1.62c-.74-.15-1.61-.33-2.38-.41a2,2,0,0,0-.57,0c-.71-2.14-.29-5.1-.32-7.28a44.1,44.1,0,0,0-.91-8.16,4.13,4.13,0,0,0-.42-1.14,10.15,10.15,0,0,0,3.12-5.41c1.92-7.67,1.26-17.68.2-25.36a41,41,0,0,0-1.74-7.51c9.9-2.38,19.82-6.76,26.78-14.34s9.1-17.41,8.09-27.3a39.14,39.14,0,0,0-4.38-15.4,25.25,25.25,0,0,0-3.82-5.34,14.39,14.39,0,0,0-1.83-1.57c.55-.64,1-1.23,1.3-1.48a27.07,27.07,0,0,0,3-3.27A25.75,25.75,0,0,0,400,77.66c1-20-20.18-32.46-37.7-34a38.37,38.37,0,0,0-6.69.15c.13,0-.13,0-.51.1a9.76,9.76,0,0,0,.27-3,23.59,23.59,0,0,0-4.27-14.51c-5.07-7.26-12.74-12.61-20.71-16.25-8.56-3.9-17.89-6.36-27.33-5.07a41.53,41.53,0,0,0-14.4,4.75c-3,1.68-1.5,2.74-3.94.25a26.86,26.86,0,0,0-4.81-4.25C270.68.1,257.35-1.61,247,1.62a40.12,40.12,0,0,0-13.4,7.18c-1.69,1.38-3.47,4.1-5.45,5-2.77,1.28-5.77-.49-8.44-1.36C201,6.31,177.08,8.71,162.24,22.73a32,32,0,0,0-7.75,11.14c-.72,1.78-1,3.8-1.8,5.53-1.23,2.77-3.63,3-6.37,4.09-8.84,3.57-16.66,8.43-22.53,16.07A44.09,44.09,0,0,0,115,94.06a42,42,0,0,0,2.64,9.09c1,2.45,3.51,5.86,2.41,8.62-.86,2.15-3.94,4.33-5.49,6a47.44,47.44,0,0,0-5.4,6.73c-5.82,9.27-3.5,20.57,3.69,28.38,5.51,6,14.75,10.29,23.06,9.1,0,.48-.06,1-.06,1.48,0,4.43,1.09,8.93,1.52,13.35.49,5,1.06,10.08,3.06,14.79a14.88,14.88,0,0,0,3.05,4.73c-4.46,4.61-6.23,14.27-5,20.26-8.85-1-19.51,8-22.22,15.68a19.72,19.72,0,0,0,3.25,18.47c4.62,5.75,11.75,7.38,18.82,6.49a10.7,10.7,0,0,0,3.82-.79l0,0a5,5,0,0,1,.25,1.15c.17,3.72,2.31,7.89,3.59,11.32a88.57,88.57,0,0,0,11.57,22.2,94.79,94.79,0,0,0,11.29,12.6c-5.14,2.37-10.31,6.36-12.79,10.51a15.85,15.85,0,0,0-2,6.18c-9.59,3-18.32,9.25-26.29,15.12A195.24,195.24,0,0,0,101.45,359,239.85,239.85,0,0,0,62.8,413.46c-10.3,20-18.91,42.6-19.84,65.33-.33,8.2-1.45,18,8.72,20.07C62.24,501,74.23,499.91,85,500.11c14.69.27,29.4.18,44.09.58,7.3.2,14.59.42,21.89.58,5.17.11,10.4,1.45,15.15-.23,4.39,3.2,10.16,4.36,15.54,5.07,21.21,2.8,42.9,3.76,64.25,4.84,11.3.57,22.64,1.12,34,1.05,10.24-.06,20.46-.88,30.7-1a63.08,63.08,0,0,0,11.43-.85c6.32,0,12.6-.64,18.93-.59,7.18.06,14.35.3,21.52.19,13.28-.2,26.32-2,39.53-3,12.95-1,26-2,38.95-2.41,9.53-.27,21.35-1.15,26.32-10.71C469.38,489.47,469.4,484.75,469.11,480.2ZM153,491.37c-6.23-.22-12.48-.18-18.72-.37-11.19-.34-22.38-.33-33.57-.37-11.63,0-23.25-.26-34.88-.41q-3.87,0-7.74-.24c-1.24-.06-4.19.27-5.22-.52-1.79-1.38-.58-8.64-.5-10.68.83-20.7,8.77-41.51,18-59.82a229.67,229.67,0,0,1,34.35-50A232.19,232.19,0,0,1,154,327.6c.32,3.88,1,7.76,1.18,11.12,1.28,22.31.68,44.68,1.66,67s2.8,44.47,1.78,66.74c-.29,6.35-.94,13.28,1.05,19.41C157.46,491.67,155.23,491.45,153,491.37ZM137.48,156.08c-7.92-.17-17.7-6.46-21.11-13.27-5-9.94,2.77-16.11,8.81-22.92,2.75-3.1,4.69-6.29,4.31-10.58-.4-4.45-3.17-8.29-4.47-12.48a34.56,34.56,0,0,1,4.67-30C135.1,59,143.22,55.09,152,52.3c3.8-1.2,7.14-2.62,9.38-6.11,2-3.09,2.36-6.8,4-10,8.39-16.05,32.65-19.44,48.3-15.19,4.46,1.21,8.79,3.43,13.51,3.17,4.21-.23,7.3-2.56,10.26-5.36a29.59,29.59,0,0,1,28.7-7.35,23.51,23.51,0,0,1,11.63,6.47c2.7,2.69,5.59,4.74,9.61,4.05,4.43-.75,8.24-4.35,12.64-5.61a29.18,29.18,0,0,1,13-.77,52,52,0,0,1,22,9.53A29.91,29.91,0,0,1,343,33.36c2.61,4.34,1.1,8.78,2,13.49,2,10,9.93,6.77,17.29,7.51,7.85.78,16.1,4.22,21.59,10,7.19,7.56,6.4,16.88-1,23.74-2.45,2.27-5.64,5.13-5.52,8.81.13,4.23,3.82,5.73,6.55,8.15,7.17,6.34,7.7,20.47,3.61,28.55-5.14,10.15-18,13.76-28.26,15.94h0a31.82,31.82,0,0,0-3.2-3.21c-13.91-12.1-35.35-15.67-52.91-18.5-21.79-3.5-43.7-3.89-65.7-2.64-21.52,1.22-43.24,3.63-63.78,10.47a187.71,187.71,0,0,0-24.55,10C144.19,148.11,139.78,151.47,137.48,156.08Zm220.05,34.71c-.73,1-1.26.42-3-.12-16.51-5.24-33-11.17-50.25-13.79A286.72,286.72,0,0,0,262,174c-36.28-.09-73,4.6-107.65,15.47-2.17.68-3.32,1.46-4.74-.62-1-1.44-1.32-3.76-1.66-5.44-1-4.59-1.12-9.3-1.8-13.93-.59-4-1.91-8.14,1-11.53,2.34-2.71,6-4.31,9.18-5.72a198.26,198.26,0,0,1,50.61-15c37.8-5.74,78.15-5.88,115.25,4,8.15,2.16,16.46,4.56,23.63,9.12,8.39,5.34,11.9,13.22,12.35,23,.19,4.12-.05,8.28-.18,12.4C358,186.93,358.32,189.74,357.53,190.79ZM157.6,274c-3.34-7-4.82-14.4-7.67-21.44-2.49-6.14-6.68-4.85-11.85-3.8-8.42,1.71-17-4.23-14.25-13.51,1.27-4.31,4.89-8,8.85-9.91,5.75-2.85,15.69-3,17.14,4.72.73,3.9,1,9,4.24,11.8,3.68,3.16,8.93,1,12.07-1.91,4.44-4.16,4-9.91,3.1-15.42-.5-2.93-1.66-6.47,0-9.24s5.06-4.35,7-6.87c3-3.86,5.52-11.15,3.59-16.27a333.21,333.21,0,0,1,44.89-7c22.56-2.06,45.35-2.61,67.91-.24a214.1,214.1,0,0,1,33.94,6.59c.42.26.85.5,1.27.73-1.36,3.17-3,5.61-2.39,9.88a15.79,15.79,0,0,0,7.16,11.11c1.73,1.12,4.9,1.71,6.2,3.36,1.94,2.46.15,6.84,0,9.63-.17,3.88.62,8.46,3.32,11.43,6.6,7.27,16.07-1,19.23-7.48a35.22,35.22,0,0,0,2.13-5.74c2.25.51,4.66.75,6.82,1.71,12,5.35,8.2,23.58-3.77,26.4-5.54,1.3-10.64-3.72-15.84.2-2.2,1.65-3.34,4-4.43,6.5a66.11,66.11,0,0,1-5.68,10.21C332,282.13,322.43,295,309.76,304.08c-24.35,17.36-55.4,21.05-84.39,16.43C197.33,316,170.23,300.26,157.6,274ZM316.36,311.1a69.47,69.47,0,0,1-5.42,9.64,58.67,58.67,0,0,1-17,16.63c-12.58,8-27.82,11-42.59,10.56s-30.55-4.91-43.87-11.16c-8.74-4.1-18.24-12.15-23.5-21.39a96.13,96.13,0,0,0,9.47,5.24c29.12,14,67.61,15.41,97.79,4A104.08,104.08,0,0,0,316.36,311.1ZM177.55,494.94c-8.43-2.49-9-9.27-8.66-17.11.71-18.92-.41-37.7-1.66-56.57-1.43-21.68-1.87-43.32-2.39-65-.26-10.73-1.13-21.37-1.78-32.08-.24-3.89.32-5.72,3.22-8.41a77.87,77.87,0,0,1,8.27-7.09c.57.46,1.15.9,1.73,1.35-1.47,4.8-.3,10.85,0,15.56.47,8.54,1.15,17.05,1.47,25.6.63,16.74.88,33.48,1.75,50.21.89,17.27,2,34.52,2.75,51.79.38,8.39.77,16.79,1,25.18.15,5.55-.44,12.16.71,18A46.69,46.69,0,0,1,177.55,494.94ZM321.09,325.65c-.55,8.33-1.77,16.59-2.39,24.92-1.27,17.33-2.14,34.77-2.66,52.14s-.77,35-1.14,52.49c-.32,15.2-2,30.35-2.29,45.54-37.22,1.75-74.28,0-111.41-3.05-3-.24-6.11-.38-9.23-.58.24-6.14-.81-12.77-1-18.76-.33-8.4-.82-16.79-1.3-25.18q-1.45-25.37-2.8-50.74c-.85-16.4-1.15-32.82-1.71-49.23-.26-7.85-.58-15.71-1.36-23.53-.1-1-.23-2.06-.38-3.09a73,73,0,0,0,6.52,7.56c10.08,10.29,24.1,14.56,37.54,18.5,25.35,7.42,55.37,5,76.65-11.69a69.63,69.63,0,0,0,15.45-17c.52-.8,1.06-1.66,1.61-2.55C321.18,322.8,321.18,324.25,321.09,325.65ZM331.31,488.4a27.14,27.14,0,0,1-5.12,8.57,10.57,10.57,0,0,1-4.76,2.82c.19-14.52,1.68-29,1.88-43.55.23-17.15-.59-34.3-.22-51.44.36-16.69,1.18-33.41,2.15-50.08.49-8.32,1.43-16.6,2-24.92.44-6.68-.14-13.25-.35-19.89.18-.54.36-1.08.51-1.61,5.15,2.21,10.76,5.48,12.48,10.39,1.35,3.84.67,8.36.74,12.37.1,5.13.35,10.26.63,15.38a480.19,480.19,0,0,1-.07,59.09c-1.34,19.33-2.68,38.73-4.46,58C335.91,472,334.56,480.53,331.31,488.4Zm121.94,4.31c-4.87,1.61-10.33,1.2-15.39,1.3-11.93.22-24,1.4-35.9,2.37-13.88,1.13-27.55,3-41.51,3.09-7.28.07-15.24-.72-23-.39a58.41,58.41,0,0,0,6.42-15.88c2.61-9.89,3.28-20.2,3.94-30.36.73-11.28,1.7-22.54,2.61-33.81a572.31,572.31,0,0,0,.88-75.66c-.3-6-.47-12-.49-17.95q0-.84,0-1.67c5.47,4.54,11.56,8.33,17.2,12.72,9.49,7.38,19.19,14.47,28.48,22.1,18.07,14.85,34,32,45.48,52.45,6,10.69,8.75,22.55,12,34.27a159.63,159.63,0,0,1,5.45,36.48C459.63,487,458.63,490.93,453.25,492.71Z" transform="translate(-42.75 0)"/><path d="M201.63,224.67c5,4.25,13.45,1.35,15.33-5.47a12.18,12.18,0,0,0-2.48-11.29,9.8,9.8,0,0,0-11.85-1.8C195.85,209.93,195.08,220.72,201.63,224.67Z" transform="translate(-42.75 0)"/><path d="M294.12,221.94c8.43,3.28,15.33-5.49,13.84-13.31-1.59-8.36-12.73-11.31-17.4-3.68a11.88,11.88,0,0,0-1.25,8.75C289,217.12,290.25,220.43,294.12,221.94Z" transform="translate(-42.75 0)"/><path d="M250.75,266.76c4.85.06,10.06-1,13.69-4.39,3.25-3.07,5.56-8.24,2.9-12.35a1.29,1.29,0,0,0-2-.26c-1.87,1.93-2.67,4.66-4.72,6.42a14.29,14.29,0,0,1-8,2.87c-7.23.59-14-1.29-15-9.35-.2-1.58-2.31-2.53-3.24-.88C228,260,241.36,266.65,250.75,266.76Z" transform="translate(-42.75 0)"/><path d="M247.18,293a45.05,45.05,0,0,0,18.74-3.32c4.6-1.86,12.17-5.18,12.29-10.93a2.68,2.68,0,0,0-2.61-2.61c-4.15-.55-8.84,3.76-12.53,5.34a37.31,37.31,0,0,1-14.62,3.06A28.61,28.61,0,0,1,235,281.35c-4.05-2.13-7.21-6.44-11.6-7.73a1.66,1.66,0,0,0-2,1.15C219.44,286.84,238.27,292.61,247.18,293Z" transform="translate(-42.75 0)"/></svg>