<svg id="Capa_1" data-name="Capa 1" xmlns="http://www.w3.org/2000/svg" viewBox="0 0 512 512"><defs><style>.cls-1{fill:#ffe261;}.cls-2{fill:#f2f2f7;}.cls-3{fill:#ff526c;}.cls-4{fill:#374266;}</style></defs><title>coupon</title><path class="cls-1" d="M512,256A256.27,256.27,0,1,1,420.58,59.92,255.27,255.27,0,0,1,512,256Z"/><path class="cls-2" d="M435.14,438.89A256,256,0,0,1,61.2,422.11a1295.24,1295.24,0,0,0,1.42-199.84q-4.12-58.7-13.57-117-2.85-17.63-6.21-35.19L69,81.21l8.41,3.57,26.71-26.37L138.62,73.1l26.7-26.37,34.53,14.69,26.7-26.36,34.53,14.68,26.71-26.37h0l34.53,14.69,22.5-22.22L349,11.68l34.54,14.69L410.29,0q5.7,29.89,10.29,59.91,9,58.74,13.81,117.9A1671.47,1671.47,0,0,1,435.14,438.89Z"/><path class="cls-3" d="M434.39,177.81,62.62,222.27q-4.12-58.7-13.57-117-2.85-17.63-6.21-35.19L69,81.21l8.41,3.57,26.71-26.37L138.62,73.1l26.7-26.37,34.53,14.69,26.7-26.36,34.53,14.68,26.71-26.37h0l34.53,14.69,22.5-22.22L349,11.68l34.54,14.69L410.29,0q5.7,29.89,10.29,59.91Q429.59,118.66,434.39,177.81Z"/><path class="cls-4" d="M156.48,345V306.53c0-26.85,17.63-36.61,40.68-36.61,22.78,0,40.68,9.77,40.68,36.61V345c0,26.85-17.9,36.61-40.68,36.61C174.11,381.66,156.48,371.89,156.48,345Zm54.24-38.51c0-9-5.15-13-13.56-13s-13.29,4.07-13.29,13V345c0,9,4.88,13,13.29,13s13.56-4.07,13.56-13Zm111.19-33.36a11.76,11.76,0,0,1-1.08,5.15L225.37,473.87c-1.9,4.07-7.05,6.78-12.2,6.78-9.22,0-15.19-7.59-15.19-14.37a12.15,12.15,0,0,1,1.36-5.15l95.19-195.54c2.17-4.61,6.51-6.78,11.39-6.78C313.51,258.8,321.92,264.5,321.92,273.18Zm-41,159.2V393.86c0-26.85,17.63-36.61,40.68-36.61,22.78,0,40.68,9.76,40.68,36.61v38.51c0,26.85-17.9,36.61-40.68,36.61C298.6,469,281,459.22,281,432.38Zm54.24-38.51c0-9-5.15-13-13.56-13s-13.29,4.07-13.29,13v38.51c0,9,4.88,13,13.29,13s13.56-4.07,13.56-13Z"/></svg>