<svg id="Layer_1" data-name="Layer 1" xmlns="http://www.w3.org/2000/svg" viewBox="0 0 512 511.87"><defs><style>.cls-1{fill:#807a72;}.cls-2{fill:#ff9940;}.cls-3{fill:#f5760f;}.cls-4{fill:#ffd042;}.cls-5{fill:#ffb266;}.cls-6{fill:#ffc412;}.cls-7{fill:#64dde3;}.cls-8{fill:#38ced9;}.cls-9{fill:#89ebf0;}</style></defs><title>fishing</title><path class="cls-1" d="M366.91,320.12c-9.38,0-18.18-4.3-24.83-12.31-14.4-17.33-16.31-47.83-4.76-75.89,26.95-65.44,37.81-116.49,29.07-136.56-1.74-4-4.11-6.43-7.46-7.69-27.49-10.3-69.71,66-85.86,104.52a8.39,8.39,0,1,1-15.49-6.49,465.39,465.39,0,0,1,32.45-62c27.17-42.76,52.33-60.17,74.79-51.75,7.68,2.88,13.39,8.5,17,16.71,14.62,33.57-11.86,108.17-28.94,149.66-10.63,25.81-6.34,48.55,2.15,58.76,4.26,5.12,9.3,7.12,15,5.92,6.77-1.42,30.46-11.58,51-82.8C439.07,157.38,491.69,16,495.79,5.42a8.39,8.39,0,1,1,15.66,6.06c-3.9,10.08-56.74,152.25-74.34,213.37-16.06,55.76-38.67,89.35-63.67,94.58A31.84,31.84,0,0,1,366.91,320.12Z" transform="translate(0 -0.07)"/><path class="cls-2" d="M350.66,493.3c-31.92-28.38-69.13-53.39-81.13-61.25v-54.2a8.48,8.48,0,0,0-11.26-7.89c-39,14.17-50.93,46.82-54.46,62.06l-55.09-3.06,124.05-236.1a8.4,8.4,0,0,0-3.48-11.31c-33.07-17.64-81.37-19.37-129.19-4.62C87.77,193.06,45,226.62,22.83,269-3.54,319.34-7.3,375.47,12.77,419.15,29.6,455.77,62,481.28,103.93,491a137.78,137.78,0,0,0,31,3.37c36,0,68.69-12.32,81.89-18,18.75,21.1,46.45,33.27,80.56,35.32,3.61.22,7.13.31,10.51.31a176.81,176.81,0,0,0,39.25-4.22A8.47,8.47,0,0,0,350.66,493.3Z" transform="translate(0 -0.07)"/><path class="cls-3" d="M348.52,491.41a8.19,8.19,0,0,1-1.4.5,176.88,176.88,0,0,1-39.25,4.22c-3.38,0-6.89-.09-10.51-.31-34.12-2-61.81-14.22-80.56-35.32-13.2,5.71-45.85,18-81.89,18a137.72,137.72,0,0,1-31-3.37C62,465.48,29.6,440,12.77,403.35A143.86,143.86,0,0,1,.19,350.15c-1.13,24.51,3,48.17,12.58,69C29.6,455.77,62,481.28,103.93,491a137.73,137.73,0,0,0,31,3.37c36,0,68.69-12.32,81.89-18,18.75,21.1,46.45,33.27,80.56,35.32,3.61.22,7.13.31,10.51.31a176.81,176.81,0,0,0,39.25-4.22,8.47,8.47,0,0,0,3.54-14.42Z" transform="translate(0 -0.07)"/><path class="cls-4" d="M188.79,319.07a101.24,101.24,0,0,0,18.54-1.71l65.42-124.51a8.4,8.4,0,0,0-3.48-11.31c-33.07-17.64-81.37-19.37-129.19-4.62a221.93,221.93,0,0,0-50.27,22.57,100.8,100.8,0,0,0,99,119.59Z" transform="translate(0 -0.07)"/><circle class="cls-5" cx="164.59" cy="218.26" r="20.99"/><circle class="cls-1" cx="164.59" cy="218.26" r="12.59"/><circle class="cls-4" cx="445.83" cy="163.69" r="49.4"/><path class="cls-5" d="M396.86,157.29l87.8,37a49.15,49.15,0,0,0,10.54-29.72L410.75,129A49.24,49.24,0,0,0,396.86,157.29Z" transform="translate(0 -0.07)"/><path class="cls-6" d="M458.42,208a49.39,49.39,0,0,1-24.84-92.09,49.4,49.4,0,1,0,37.08,90.56A49.46,49.46,0,0,1,458.42,208Z" transform="translate(0 -0.07)"/><path class="cls-2" d="M417,131.63,410.75,129a49.25,49.25,0,0,0-13.89,28.31l12.33,5.19c-.1-1.29-.17-2.59-.17-3.9A49.15,49.15,0,0,1,417,131.63Z" transform="translate(0 -0.07)"/><path class="cls-3" d="M67,335.85a29.37,29.37,0,0,1-23.32-47.2,8.4,8.4,0,0,1,13.35,10.19,12.59,12.59,0,1,0,20,15.28,8.4,8.4,0,0,1,13.35,10.19A29.36,29.36,0,0,1,67,335.85Z" transform="translate(0 -0.07)"/><path class="cls-3" d="M125.8,373.63a29.37,29.37,0,0,1-23.32-47.2,8.4,8.4,0,0,1,13.35,10.19,12.59,12.59,0,1,0,20,15.28,8.4,8.4,0,0,1,13.35,10.19A29.36,29.36,0,0,1,125.8,373.63Z" transform="translate(0 -0.07)"/><path class="cls-3" d="M75.5,399a29.39,29.39,0,0,1-23.3-47.21,8.4,8.4,0,0,1,13.35,10.19,12.59,12.59,0,1,0,20,15.28,8.4,8.4,0,0,1,13.35,10.19,29.19,29.19,0,0,1-19.45,11.3A30.08,30.08,0,0,1,75.5,399Z" transform="translate(0 -0.07)"/><path class="cls-7" d="M273.2,5.86a42,42,0,0,0-53.25,26.23c-6.48,19.07,7.24,69.48,10.06,79.39a8.48,8.48,0,0,0,13.08,4.44c8.27-6.14,49.87-37.75,56.35-56.82A42,42,0,0,0,273.2,5.86Z" transform="translate(0 -0.07)"/><path class="cls-8" d="M228.8,40.53a42,42,0,0,1,63.91-20.8,41.94,41.94,0,0,0-72.77,12.37c-6.48,19.07,7.24,69.48,10.06,79.39a8.47,8.47,0,0,0,8.19,6.05C234.37,103.69,222.74,58.38,228.8,40.53Z" transform="translate(0 -0.07)"/><path class="cls-7" d="M415.81,362.64c-19.15-6.21-69.37,8.22-79.24,11.17A8.48,8.48,0,0,0,332.31,387c6.26,8.18,38.45,49.33,57.61,55.55h0a42,42,0,0,0,25.89-79.86Z" transform="translate(0 -0.07)"/><path class="cls-8" d="M441.24,385.63a42,42,0,0,1-54.63,44.73h0c-17.29-5.61-45.18-39.65-55.07-52.26a8.39,8.39,0,0,0,.76,8.86c6.26,8.18,38.45,49.33,57.61,55.55h0a41.95,41.95,0,0,0,51.33-56.87Z" transform="translate(0 -0.07)"/><path class="cls-7" d="M89.06,73.59h0A42,42,0,0,0,28.28,131.5c13.9,14.58,64.92,25.79,75,27.89a8.48,8.48,0,0,0,10-9.53C111.68,139.68,103,88.17,89.06,73.59Z" transform="translate(0 -0.07)"/><path class="cls-8" d="M40.72,127.3A41.95,41.95,0,0,1,51.62,61.18,42,42,0,0,0,28.28,131.5c13.9,14.58,64.92,25.79,75,27.89a8.46,8.46,0,0,0,9.35-4.85C97.86,151.31,53.52,140.74,40.72,127.3Z" transform="translate(0 -0.07)"/><circle class="cls-9" cx="67.06" cy="88.14" r="12.59"/><circle class="cls-9" cx="276.95" cy="46.16" r="12.59"/><circle class="cls-9" cx="407.08" cy="390.37" r="12.59"/></svg>