<svg id="Capa_1" data-name="Capa 1" xmlns="http://www.w3.org/2000/svg" viewBox="0 0 458.77 512"><defs><style>.cls-1{fill:#ffca28;}.cls-2{fill:#ffb300;}.cls-3{fill:#ffc107;}.cls-4{fill:#ffd54f;}.cls-5{fill:#f44336;}</style></defs><title>french-fries</title><path class="cls-1" d="M405.38,13.33H362.72A10.67,10.67,0,0,0,352,24V159.34a10.67,10.67,0,0,0,8.53,10.43l42.67,9a10.34,10.34,0,0,0,2.13.24A10.67,10.67,0,0,0,416,168.3V24A10.66,10.66,0,0,0,405.38,13.33Z" transform="translate(-26.62 0)"/><path class="cls-2" d="M357.13,14a10.67,10.67,0,0,0-7.74-3.33H306.72A10.67,10.67,0,0,0,296,20.78L285.38,223.45a10.67,10.67,0,0,0,10.1,11.21H296a10.38,10.38,0,0,0,2.67-.32l42.67-10.67a10.67,10.67,0,0,0,8.06-9.75l10.67-192A10.67,10.67,0,0,0,357.13,14Z" transform="translate(-26.62 0)"/><path class="cls-3" d="M96.84,76.59a10.67,10.67,0,0,0-8.21-1.73L35.29,85.53a10.67,10.67,0,0,0-8.53,12.2l21.33,128a10.67,10.67,0,0,0,10.62,8.94H112a10.67,10.67,0,0,0,10.54-12.29L101.25,83.71A10.67,10.67,0,0,0,96.84,76.59Z" transform="translate(-26.62 0)"/><path class="cls-3" d="M479.49,86.46,436.83,65.13a10.67,10.67,0,0,0-14.31,4.77h0L340,235a10.67,10.67,0,0,0,9.54,15.45,10.88,10.88,0,0,0,2-.19l82.54-15.72a10.67,10.67,0,0,0,8.11-7.1l42.67-128A10.67,10.67,0,0,0,479.49,86.46Z" transform="translate(-26.62 0)"/><path class="cls-2" d="M413.3,139l-42.67-10.67a10.67,10.67,0,0,0-13.16,9L346.8,222.68a10.67,10.67,0,0,0,10.67,12h42.67a10.67,10.67,0,0,0,10.67-9.15l10.67-74.67A10.67,10.67,0,0,0,413.3,139Z" transform="translate(-26.62 0)"/><path class="cls-4" d="M132,137.34a10.66,10.66,0,0,0-13.16-9L76.15,139a10.67,10.67,0,0,0-8,11.86l10.67,74.67a10.67,10.67,0,0,0,10.67,9.15h42.67a10.67,10.67,0,0,0,10.67-12Z" transform="translate(-26.62 0)"/><path class="cls-3" d="M154.65,22.74a10.67,10.67,0,0,0-4.54-7.53,10.54,10.54,0,0,0-8.64-1.56L98.8,24.32a10.67,10.67,0,0,0-8.08,10.35l.13,33.6,21.33,138.67a10.67,10.67,0,0,0,10.54,9h42.67a10.67,10.67,0,0,0,10.74-10.59,10.78,10.78,0,0,0-.07-1.33Z" transform="translate(-26.62 0)"/><path class="cls-4" d="M239.58,289.26,208.2,109.8a3.67,3.67,0,0,0-.26-1.09L186.61,34a10.67,10.67,0,0,0-14.93-6.61L129,48.77a10.66,10.66,0,0,0-5.85,10.52l23.91,262.64a10.67,10.67,0,0,0,14.74,8.88l71.36-29.87A10.67,10.67,0,0,0,239.58,289.26Z" transform="translate(-26.62 0)"/><path class="cls-4" d="M304,21.33H261.38A10.67,10.67,0,0,0,250.72,31l-25.3,281.34A10.67,10.67,0,0,0,235.08,324c.33,0,.67,0,1,0h59.33a10.67,10.67,0,0,0,10.67-10.24l8.64-217.34V32A10.67,10.67,0,0,0,304,21.33Z" transform="translate(-26.62 0)"/><path class="cls-3" d="M360.48,106.94l-64-10.67a10.82,10.82,0,0,0-8.3,2.13,10.67,10.67,0,0,0-4.08,7.53L267.44,305.28a10.67,10.67,0,0,0,9.13,11.46L328,324.07a11.59,11.59,0,0,0,12-8.9L348,268.52v-.26l21.33-149.33A10.67,10.67,0,0,0,360.48,106.94Z" transform="translate(-26.62 0)"/><path class="cls-2" d="M269.19,3.39A10.67,10.67,0,0,0,261.38,0H218.72A10.67,10.67,0,0,0,208,9.34l-35.2,281.92a10.67,10.67,0,0,0,7.55,11.56L237,319.57A10.86,10.86,0,0,0,240,320a10.67,10.67,0,0,0,10.67-9.9L272,11.44A10.67,10.67,0,0,0,269.19,3.39Z" transform="translate(-26.62 0)"/><path class="cls-1" d="M245.38,95.47a10.67,10.67,0,0,0-10.67-10.13H192.05A10.67,10.67,0,0,0,181.37,96c0,.19,0,.38,0,.57l10.67,202.67a10.67,10.67,0,0,0,8.06,9.77l42.67,10.67a10.39,10.39,0,0,0,2.6.34,10.67,10.67,0,0,0,10.68-10.65c0-.18,0-.36,0-.55Z" transform="translate(-26.62 0)"/><path class="cls-5" d="M462,217.6a10.67,10.67,0,0,0-8.53-4.27H346.76A10.67,10.67,0,0,0,336.09,224a74.67,74.67,0,0,1-74.67,74.67H240.09A74.67,74.67,0,0,1,165.43,224a10.67,10.67,0,0,0-10.67-10.67H48.09a10.67,10.67,0,0,0-10.2,13.8l76,247.21a53.08,53.08,0,0,0,51,37.65H336.54a53.08,53.08,0,0,0,51-37.65l76.05-247.21A10.67,10.67,0,0,0,462,217.6Z" transform="translate(-26.62 0)"/></svg>