<svg id="Capa_1" data-name="Capa 1" xmlns="http://www.w3.org/2000/svg" viewBox="0 0 55 50.79"><defs><style>.cls-1{fill:#f4c44e;}.cls-2{fill:#f9ea80;}.cls-3{fill:#f9da49;}.cls-4{fill:#f9d70b;}</style></defs><title>lemon</title><path class="cls-1" d="M55,31H13a21,21,0,0,0,42,0Z" transform="translate(0 -2.1)"/><path class="cls-2" d="M51,31H17a17,17,0,0,0,34,0Z" transform="translate(0 -2.1)"/><rect class="cls-3" x="33" y="28.9" width="2" height="17"/><rect class="cls-3" x="39" y="28.52" width="2" height="16.97" transform="translate(-14.45 37.02) rotate(-45)"/><rect class="cls-3" x="19.51" y="36" width="16.97" height="2" transform="translate(-17.96 28.53) rotate(-45)"/><path class="cls-4" d="M48,11.28l.4-.4a4,4,0,1,0-5.66-5.66l-.24.24c-9.09-6.13-23.11-3.76-33,6.12s-12.26,23.9-6.12,33l-.24.24a4,4,0,0,0,5.66,5.66l.4-.4c5.55,3.31,12.72,3.65,19.64,1.24A21,21,0,0,1,13,31H49.2C51.63,24.06,51.31,16.85,48,11.28ZM32.88,9a2.2,2.2,0,0,1-2.76,1.29c.59.13-.09,0-.21,0l-.47,0h-.25l-.5.06A2.15,2.15,0,0,1,28,6.11a9.47,9.47,0,0,1,3.61.16A2.15,2.15,0,0,1,32.88,9Z" transform="translate(0 -2.1)"/></svg>