<svg id="Layer_1" data-name="Layer 1" xmlns="http://www.w3.org/2000/svg" viewBox="0 0 60 36"><defs><style>.cls-1{fill:#ffb600;}.cls-2{fill:#f7981d;}.cls-3{fill:#ff8500;}.cls-4{fill:#ff5050;}.cls-5{fill:#e52836;}.cls-6{fill:#cb2026;}.cls-7{fill:#fff;}.cls-8{fill:#dce5e5;}</style></defs><title>mastercard</title><path class="cls-1" d="M60,30A18,18,0,1,1,41.9,12,18,18,0,0,1,60,30Z" transform="translate(0 -12)"/><path class="cls-2" d="M42,12A18,18,0,1,1,24,30" transform="translate(0 -12)"/><path class="cls-3" d="M42,12a18,18,0,0,1,0,36" transform="translate(0 -12)"/><path class="cls-4" d="M17.81,12A18,18,0,0,0,18,48a18.21,18.21,0,0,0,12.1-4.67,17.12,17.12,0,0,0,1.81-1.9H28.19a22,22,0,0,1-1.33-1.81h6.38a12.2,12.2,0,0,0,1-1.9H25.81a11.36,11.36,0,0,1-.76-1.9H35a18.91,18.91,0,0,0,1-5.71,24.58,24.58,0,0,0-.38-3.81h-11a13.91,13.91,0,0,1,.48-1.9h9.9a11.34,11.34,0,0,0-.76-1.9H25.71a18.9,18.9,0,0,1,1-1.9h6.38a9.06,9.06,0,0,0-1.43-1.9H28.19A16.23,16.23,0,0,1,30,16.86a17.57,17.57,0,0,0-12.1-4.67C17.9,12,17.9,12,17.81,12Z" transform="translate(0 -12)"/><path class="cls-5" d="M0,30A18,18,0,0,0,18,48a18.21,18.21,0,0,0,12.1-4.67,17.11,17.11,0,0,0,1.81-1.9H28.19a22,22,0,0,1-1.33-1.81h6.38a12.2,12.2,0,0,0,1-1.9H25.81a11.35,11.35,0,0,1-.76-1.9H35a18.91,18.91,0,0,0,1-5.71,24.58,24.58,0,0,0-.38-3.81h-11a13.91,13.91,0,0,1,.48-1.9h9.9a11.34,11.34,0,0,0-.76-1.9H25.71a18.89,18.89,0,0,1,1-1.9h6.38a9.06,9.06,0,0,0-1.43-1.9H28.19A16.23,16.23,0,0,1,30,16.86a17.57,17.57,0,0,0-12.1-4.67h-.1" transform="translate(0 -12)"/><path class="cls-6" d="M18,48a18.21,18.21,0,0,0,12.1-4.67,17.1,17.1,0,0,0,1.81-1.9H28.19a22,22,0,0,1-1.33-1.81h6.38a12.2,12.2,0,0,0,1-1.9H25.81a11.35,11.35,0,0,1-.76-1.9H35a18.91,18.91,0,0,0,1-5.71,24.58,24.58,0,0,0-.38-3.81h-11a13.91,13.91,0,0,1,.48-1.9h9.9a11.36,11.36,0,0,0-.76-1.9H25.71a18.87,18.87,0,0,1,1-1.9h6.38a9.05,9.05,0,0,0-1.43-1.9H28.19A16.23,16.23,0,0,1,30,16.86a17.57,17.57,0,0,0-12.1-4.67h-.1" transform="translate(0 -12)"/><path class="cls-7" d="M24.38,34.57,24.67,33a4.12,4.12,0,0,1-.48.1c-.67,0-.76-.38-.67-.57l.57-3.33h1l.29-1.81h-1l.19-1.14h-1.9s-1.14,6.29-1.14,7a1.43,1.43,0,0,0,1.52,1.62A2.92,2.92,0,0,0,24.38,34.57Z" transform="translate(0 -12)"/><path class="cls-7" d="M25,31.52a3,3,0,0,0,3.33,3.33,4.94,4.94,0,0,0,2-.29l.38-1.81a5.71,5.71,0,0,1-2,.48c-2.1,0-1.71-1.52-1.71-1.52H31A12.35,12.35,0,0,0,31.24,30a2.58,2.58,0,0,0-2.76-2.76C26.48,27,25,29.14,25,31.52Zm3.33-2.76c1,0,.86,1.24.86,1.33h-2.1C27.14,30,27.33,28.76,28.38,28.76Z" transform="translate(0 -12)"/><path class="cls-7" d="M40.48,34.57l.38-2.1a4.68,4.68,0,0,1-1.62.48c-1.33,0-1.9-1-1.9-2.19,0-2.29,1.14-3.52,2.48-3.52a3.18,3.18,0,0,1,1.71.57l.29-2a6.7,6.7,0,0,0-2.19-.48c-2.19,0-4.38,1.9-4.38,5.52,0,2.38,1.14,4,3.43,4A8.55,8.55,0,0,0,40.48,34.57Z" transform="translate(0 -12)"/><path class="cls-7" d="M13.9,27a6.75,6.75,0,0,0-2.29.38L11.33,29a5.63,5.63,0,0,1,2.1-.38c.67,0,1.24.1,1.24.67,0,.38-.1.48-.1.48h-.86c-1.62,0-3.43.67-3.43,2.86,0,1.71,1.14,2.1,1.81,2.1a2.86,2.86,0,0,0,2-.86l-.1.76h1.71l.76-5.24A2.26,2.26,0,0,0,13.9,27Zm.38,4.29c0,.29-.19,1.81-1.33,1.81a.74.74,0,0,1-.76-.76c0-.48.29-1.14,1.71-1.14A1.5,1.5,0,0,0,14.29,31.33Z" transform="translate(0 -12)"/><path class="cls-7" d="M18.29,34.76c.48,0,2.86.1,2.86-2.48,0-2.38-2.29-1.9-2.29-2.86,0-.48.38-.67,1-.67.29,0,1.33.1,1.33.1l.29-1.71A7.23,7.23,0,0,0,19.71,27c-1.43,0-2.86.57-2.86,2.48,0,2.19,2.38,2,2.38,2.86,0,.57-.67.67-1.14.67a6.23,6.23,0,0,1-1.71-.29l-.29,1.71C16.19,34.57,16.67,34.76,18.29,34.76Z" transform="translate(0 -12)"/><path class="cls-7" d="M56.29,25.52,55.9,28.1a2.64,2.64,0,0,0-1.81-1c-1.71,0-3.24,2.1-3.24,4.57,0,1.52.76,3.14,2.38,3.14A2.54,2.54,0,0,0,55,34.1l-.1.67h1.9l1.43-9.14Zm-.86,5c0,1-.48,2.38-1.52,2.38-.67,0-1-.57-1-1.52,0-1.52.67-2.48,1.52-2.48C55,29,55.43,29.43,55.43,30.57Z" transform="translate(0 -12)"/><path class="cls-7" d="M3.52,34.67l1.14-6.86.19,6.86H6.19l2.48-6.86-1,6.86h2l1.52-9.14H8L6.1,31.14,6,25.52H3.24L1.71,34.67Z" transform="translate(0 -12)"/><path class="cls-7" d="M33,34.67c.57-3.14.67-5.71,2-5.24a7.48,7.48,0,0,1,.67-2.19h-.38c-.86,0-1.52,1.14-1.52,1.14l.19-1H32.19L31,34.76H33Z" transform="translate(0 -12)"/><path class="cls-7" d="M44.86,27a6.75,6.75,0,0,0-2.29.38L42.29,29a5.63,5.63,0,0,1,2.1-.38c.67,0,1.24.1,1.24.67,0,.38-.1.48-.1.48h-.86c-1.62,0-3.43.67-3.43,2.86,0,1.71,1.14,2.1,1.81,2.1a2.86,2.86,0,0,0,2-.86l-.1.76h1.71l.76-5.24A2.22,2.22,0,0,0,44.86,27Zm.48,4.29c0,.29-.19,1.81-1.33,1.81a.74.74,0,0,1-.76-.76c0-.48.29-1.14,1.71-1.14C45.24,31.33,45.24,31.33,45.33,31.33Z" transform="translate(0 -12)"/><path class="cls-7" d="M49,34.67c.57-3.14.67-5.71,2-5.24a7.48,7.48,0,0,1,.67-2.19h-.38c-.86,0-1.52,1.14-1.52,1.14l.19-1H48.19L47,34.76H49Z" transform="translate(0 -12)"/><path class="cls-8" d="M21.43,33.24A1.43,1.43,0,0,0,23,34.86a3.63,3.63,0,0,0,1.43-.29L24.67,33a4.12,4.12,0,0,1-.48.1c-.67,0-.76-.38-.67-.57l.57-3.33h1l.29-1.81h-1l.19-1.14" transform="translate(0 -12)"/><path class="cls-8" d="M26,31.52c0,2.67.86,3.33,2.38,3.33a5,5,0,0,0,2-.29l.38-1.81a5.71,5.71,0,0,1-2,.48c-2.1,0-1.71-1.52-1.71-1.52H31A12.35,12.35,0,0,0,31.24,30a2.58,2.58,0,0,0-2.76-2.76C26.48,27,26,29.14,26,31.52Zm2.38-2.76c1,0,1.24,1.24,1.24,1.33H27.14C27.14,30,27.33,28.76,28.38,28.76Z" transform="translate(0 -12)"/><path class="cls-8" d="M40.48,34.57l.38-2.1a4.68,4.68,0,0,1-1.62.48c-1.33,0-1.9-1-1.9-2.19,0-2.29,1.14-3.52,2.48-3.52a3.18,3.18,0,0,1,1.71.57l.29-2a6.7,6.7,0,0,0-2.19-.48c-2.19,0-3.43,1.9-3.43,5.52,0,2.38.19,4,2.48,4A8.55,8.55,0,0,0,40.48,34.57Z" transform="translate(0 -12)"/><path class="cls-8" d="M11.33,29.14a5.63,5.63,0,0,1,2.1-.38c.67,0,1.24.1,1.24.67,0,.38-.1.48-.1.48h-.86c-1.62,0-3.43.67-3.43,2.86,0,1.71,1.14,2.1,1.81,2.1a2.86,2.86,0,0,0,2-.86l-.1.76h1.71l.76-5.24c0-2.19-1.9-2.29-2.67-2.29Zm3.9,2.19A3.12,3.12,0,0,1,13,33.14a.74.74,0,0,1-.76-.76c0-.48.29-1.14,1.71-1.14A7.79,7.79,0,0,0,15.24,31.33Z" transform="translate(0 -12)"/><path class="cls-8" d="M16.19,34.57a8.06,8.06,0,0,0,2.19.19c.48,0,2.86.1,2.86-2.48,0-2.38-2.29-1.9-2.29-2.86,0-.48.38-.67,1-.67.29,0,1.33.1,1.33.1l.29-1.71A7.23,7.23,0,0,0,19.81,27c-1.43,0-1.9.57-1.9,2.48,0,2.19,1.43,2,1.43,2.86,0,.57-.67.67-1.14.67" transform="translate(0 -12)"/><path class="cls-8" d="M55.9,28.1a2.64,2.64,0,0,0-1.81-1c-1.71,0-2.29,2.1-2.29,4.57,0,1.52-.19,3.14,1.43,3.14A2.54,2.54,0,0,0,55,34.1l-.1.67h1.9l1.43-9.14Zm-.1,2.48c0,1-.86,2.38-1.9,2.38-.67,0-1-.57-1-1.52,0-1.52.67-2.48,1.52-2.48A1.46,1.46,0,0,1,55.81,30.57Z" transform="translate(0 -12)"/><path class="cls-8" d="M3.52,34.67l1.14-6.86.19,6.86H6.19l2.48-6.86-1,6.86h2l1.52-9.14H8.76L6.1,31.14,6,25.52H5L1.71,34.67Z" transform="translate(0 -12)"/><path class="cls-8" d="M31,34.67h2c.57-3.14.67-5.71,2-5.24a7.48,7.48,0,0,1,.67-2.19h-.38c-.86,0-1.52,1.14-1.52,1.14l.19-1" transform="translate(0 -12)"/><path class="cls-8" d="M42.29,29.14a5.63,5.63,0,0,1,2.1-.38c.67,0,1.24.1,1.24.67,0,.38-.1.48-.1.48h-.86c-1.62,0-3.43.67-3.43,2.86,0,1.71,1.14,2.1,1.81,2.1A2.86,2.86,0,0,0,45,34l-.1.76h1.71l.76-5.24c0-2.19-1.9-2.29-2.67-2.29Zm3.9,2.19a3.12,3.12,0,0,1-2.29,1.81.74.74,0,0,1-.76-.76c0-.48.29-1.14,1.71-1.14A8.38,8.38,0,0,0,46.19,31.33Z" transform="translate(0 -12)"/><path class="cls-8" d="M47,34.67h2c.57-3.14.67-5.71,2-5.24a7.48,7.48,0,0,1,.67-2.19h-.38c-.86,0-1.52,1.14-1.52,1.14l.19-1" transform="translate(0 -12)"/></svg>