<svg id="Layer_1" data-name="Layer 1" xmlns="http://www.w3.org/2000/svg" viewBox="0 0 512 433.1"><defs><style>.cls-1{fill:#ea3942;}.cls-2{fill:#f3e8d7;}.cls-3{fill:#e5d6c1;}.cls-4{fill:#fc4e51;}.cls-5{fill:#912c2c;}</style></defs><title>meat</title><path class="cls-1" d="M343.46,402.72c-32.16-.79-52.59-16.3-64.35-30.44-10.54-12.66-15.16-30.08-20.51-50.25-7.45-28.06-16.72-63-45.8-95.13-28.83-31.87-64.48-45.76-95.93-58-46.43-18.08-65.27-27.06-65.27-68.22A39.87,39.87,0,0,1,59.92,75.2C23.05,99.53-.56,130.21,0,163.92,1.49,251.65,92.44,235.49,146.7,295.5,204.09,359,159.06,420.68,275.31,465.8c61.07,23.71,163.39-7.65,214.7-134.33C488.74,333.07,411.24,404.38,343.46,402.72Z" transform="translate(0 -40)"/><path class="cls-2" d="M512,239.61c0,106.11-89.29,215.29-204.53,192.13-122.59-24.64-74.57-102.1-132-165.55-54.27-60-151.06-37.09-151.06-131.57,0-85.61,148.18-108.46,283-87.13C419,65.13,512,133.5,512,239.61Z" transform="translate(0 -40)"/><path class="cls-3" d="M437.61,99.15a163.63,163.63,0,0,1,31.19,97.26c0,106.11-89.29,215.29-204.53,192.13-17.4-3.5-31.36-8.06-42.67-13.49,11.47,25.23,32.51,46,85.87,56.69C422.71,454.9,512,345.72,512,239.61,512,180.2,482.85,132.62,437.61,99.15Z" transform="translate(0 -40)"/><path class="cls-4" d="M338.5,396.91a111.24,111.24,0,0,1-50.28-9.21c-10.71-4.79-20.85-11.53-27.71-21C253,356.3,250,343.52,246.78,331.16c-6.8-26.29-15.13-52.73-30.66-75-22.94-32.91-59.59-53.8-97.24-67.64-13.26-4.87-27-9.12-38.5-17.36S59.86,149.66,61,135.58c1.48-18.09,18.47-30.77,35-38.17C141.71,77,194.53,74,243.79,77.75c50.23,3.78,103.91,13,148.5,37.41,44,24.13,76.73,65.8,81.13,116.53,4.32,49.9-18.87,103.75-57.61,135.54A132.58,132.58,0,0,1,338.5,396.91Z" transform="translate(0 -40)"/><path class="cls-1" d="M473.43,231.69c-3.89-44.87-29.93-82.64-66.37-107.47a135.71,135.71,0,0,1,22.54,63.64c4.32,49.9-18.87,103.75-57.61,135.54a132.55,132.55,0,0,1-77.32,29.68A112.69,112.69,0,0,1,251,346.55c2.26,7.15,5.12,14,9.49,20.1,6.86,9.52,17,16.26,27.71,21a111.18,111.18,0,0,0,50.28,9.2,132.53,132.53,0,0,0,77.32-29.68C454.56,335.44,477.75,281.59,473.43,231.69Z" transform="translate(0 -40)"/><path class="cls-2" d="M239.86,147.19A32.24,32.24,0,1,1,207.62,115,32.24,32.24,0,0,1,239.86,147.19Z" transform="translate(0 -40)"/><path class="cls-5" d="M79.68,118.86c-5,0-9.18.14-12.6.41a33.32,33.32,0,0,0-6,15.55c2.5-.05,5.59-.15,9.4-.29,36.49-.49,77.51,6.66,97.1,10.57,2.73.6,5.32,1.14,7.81,1.64a32.1,32.1,0,0,1,4.05-15.23q-3.81-.86-8-1.67C153.19,126.15,115.76,119.5,79.68,118.86Z" transform="translate(0 -40)"/><path class="cls-5" d="M422,361.84c-5-3.39-12-8.47-16.35-16.24-4.23-7.5-7.12-17.3-10.93-29.71-5.16-16.84-11.58-37.8-24.09-63.41-11.93-24.44-34.1-45.16-57-61.49,17.18-10,58.5-28.78,123.51-26.25,0,0,5.14.2,11.8.39a152.87,152.87,0,0,0-12.62-15.74c-7-.39-13.56-.59-13.56-.59-69.23.48-110.14,23.56-123.46,32.57a398.22,398.22,0,0,0-52.09-27.57c-2.66-1.09-5.15-2.06-7.52-2.95a32,32,0,0,1-5.31,14.38q3.4,1.64,7.21,3.3c26.17,11.61,92.46,44.73,115,90.83,12,24.5,18.18,44.81,23.18,61.12,3.82,12.47,7.12,23.2,11.88,32.16a53.14,53.14,0,0,0,15.1,17.52l2.68,2c2.2-1.58,4.37-3.21,6.46-4.93S420,363.7,422,361.84Z" transform="translate(0 -40)"/></svg>