<svg id="Layer_1" data-name="Layer 1" xmlns="http://www.w3.org/2000/svg" viewBox="0 0 512 512"><defs><style>.cls-1{fill:#35c9b8;}.cls-2{fill:#81e2d2;}.cls-3{fill:#fff;}.cls-4{fill:#c55835;}.cls-5{fill:#7a2d1a;}.cls-6{fill:#ea824e;}.cls-7{fill:#6cdc2d;}.cls-8{fill:#00a042;}.cls-9{fill:#037230;}</style></defs><title>mountain</title><g id="surface1"><path class="cls-1" d="M512,256c0,141.39-114.61,256-256,256S0,397.39,0,256,114.61,0,256,0,512,114.61,512,256Z"/><path class="cls-2" d="M0,256a255.73,255.73,0,0,0,11.13,74.87C43.14,435.72,140.67,512,256,512c104.56,0,194.49-62.7,234.23-152.55A256.46,256.46,0,0,0,478.32,129a256.07,256.07,0,0,1-444.64,0A254.79,254.79,0,0,0,0,256Z"/><path class="cls-3" d="M354,174.16c0-.08,0-.15,0-.23a25,25,0,0,1,34.34-23.25,32.48,32.48,0,0,1,60.28,9.68,18.07,18.07,0,0,1,2.62-.19,18.28,18.28,0,0,1,17.76,14Z"/><path class="cls-3" d="M72,204.16c0-.08,0-.15,0-.23a25,25,0,0,1,34.34-23.25,32.48,32.48,0,0,1,60.28,9.68,18.07,18.07,0,0,1,2.62-.19,18.28,18.28,0,0,1,17.76,14Z"/><path class="cls-3" d="M184.51,90.27c0-.1,0-.2,0-.3a33.54,33.54,0,0,1,46-31.14,43.5,43.5,0,0,1,80.72,13A24.45,24.45,0,0,1,338.5,90.27Z"/><path class="cls-4" d="M11.13,330.87c.33,1.09.67,2.18,1,3.27.17.55.35,1.11.54,1.66a3.18,3.18,0,0,0,.15.46c.21.67.44,1.34.67,2a2.43,2.43,0,0,0,.12.36l.64,1.87q.67,1.92,1.38,3.83c.37,1,.76,2.07,1.16,3.1s.9,2.34,1.37,3.51l.33.82q.63,1.56,1.29,3.12c.19.47.38.93.59,1.4.45,1.08.92,2.15,1.39,3.22s1.08,2.41,1.63,3.6c.41.9.83,1.79,1.26,2.68s.94,2,1.42,2.94c.08.17.16.33.24.49.46.93.92,1.85,1.39,2.77s1.06,2.08,1.61,3.11,1.24,2.35,1.88,3.52L32,380c.5.91,1,1.81,1.52,2.7q1.89,3.33,3.88,6.58c.3.49.6,1,.91,1.47q.93,1.51,1.89,3c.06.1.12.19.19.29.65,1,1.3,2,2,3q6.29,9.51,13.39,18.41c.52.66,1,1.31,1.57,1.95,1.58,2,3.19,3.87,4.83,5.77.59.69,1.18,1.37,1.78,2q5,5.71,10.4,11.12,2,2,3.93,3.87c.65.64,1.3,1.26,2,1.88l.25.23c.77.74,1.55,1.46,2.34,2.18s1.5,1.37,2.25,2l1.74,1.55c.63.56,1.26,1.11,1.89,1.65s1.07.93,1.61,1.38l.65.55L92.48,453c1.46,1.21,2.93,2.41,4.41,3.58l1.45,1.15c.18.15.37.29.55.43h0c.47.38.94.74,1.42,1.1.65.5,1.3,1,2,1.49q1.41,1.07,2.83,2.1c.72.53,1.45,1.06,2.18,1.57q2.82,2,5.71,4l1.63,1.09a255.55,255.55,0,0,0,23.89,14.06l3,1.52.42.21c1.1.55,2.2,1.09,3.31,1.62,1.29.62,2.57,1.23,3.87,1.82,1,.48,2.07.95,3.11,1.41l.57.25,3,1.3q2.33,1,4.66,1.93c1,.41,2.05.82,3.07,1.21q1.92.75,3.84,1.45c1.16.43,2.33.86,3.5,1.27q3.78,1.34,7.6,2.54l1.23.39,2.93.89c1.29.39,2.58.77,3.88,1.13s2.61.72,3.92,1.07c1,.26,1.93.5,2.9.75l1.61.4,3.38.8c1,.23,2,.46,3,.67.7.16,1.4.31,2.11.45,1.23.26,2.46.51,3.7.75,1.07.21,2.13.41,3.21.6q2,.36,4.05.69c.84.14,1.69.28,2.54.4l1.93.29.81.12c1,.14,1.92.27,2.89.39,1.23.17,2.46.32,3.7.46l1,.11,3.23.34.64.06c1.16.12,2.33.22,3.51.32,1.6.13,3.2.25,4.8.35,1.06.07,2.11.13,3.17.18l1.17.06c1.11.05,2.22.1,3.33.13s2.36.08,3.54.1l1.9,0,3.49,0c1.19,0,2.38,0,3.57,0l1.32,0c.88,0,1.77,0,2.65-.06l3.27-.11.82,0,2.47-.12.5,0,2.42-.15,2.4-.17q1.84-.13,3.67-.3c.85-.07,1.7-.15,2.55-.24l1-.1c1.07-.11,2.14-.22,3.2-.35,1.23-.14,2.44-.29,3.66-.45.88-.11,1.75-.23,2.63-.36h0l2-.29.67-.1c1.16-.17,2.32-.36,3.47-.55,1.35-.22,2.69-.46,4-.71s2.54-.47,3.8-.72l2.32-.47q5.77-1.2,11.44-2.66l2.26-.59q2.26-.6,4.51-1.25l2.24-.65q4.53-1.34,9-2.85l2-.67q3.35-1.15,6.65-2.41c1.29-.49,2.57-1,3.85-1.49l.94-.37,1.66-.68q2.43-1,4.84-2l1.53-.67q2.4-1,4.77-2.16l1.5-.71,2.85-1.37,1.57-.77,1.76-.89,2-1.05c1.29-.67,2.57-1.35,3.84-2q8.49-4.59,16.59-9.8c1.07-.68,2.13-1.38,3.19-2.08l.23-.15c1.19-.79,2.37-1.6,3.54-2.41s2.26-1.56,3.37-2.36l.38-.27c1-.73,2-1.47,3-2.22.37-.26.74-.54,1.1-.81,1-.76,2-1.53,3-2.3l.25-.2c1.08-.84,2.16-1.68,3.23-2.54l.2-.16.39-.32q1.37-1.08,2.7-2.19c.23-.19.46-.37.68-.56l2.6-2.19c1.42-1.21,2.82-2.44,4.2-3.67,1-.88,1.95-1.76,2.92-2.65q3.5-3.21,6.86-6.55l.34-.33h0q1-1,2-2l.24-.24,1.16-1.2c1.84-1.88,3.63-3.79,5.39-5.73,2.18-2.38,4.3-4.8,6.38-7.26.77-.92,1.55-1.85,2.31-2.79q.59-.69,1.14-1.4,2.7-3.31,5.27-6.72c.75-1,1.51-2,2.25-3l.37-.51c.78-1.07,1.56-2.15,2.32-3.24.15-.21.3-.41.43-.62.72-1,1.43-2,2.12-3.06s1.48-2.19,2.21-3.3c.35-.54.71-1.08,1.06-1.63.64-1,1.28-2,1.9-3a.34.34,0,0,0,0-.06c.73-1.16,1.45-2.34,2.17-3.52l.36-.6c.61-1,1.22-2.05,1.82-3.08,0,0,0,0,0,0,.3-.52.6-1,.89-1.55,1.21-2.09,2.38-4.21,3.51-6.34.25-.45.49-.91.73-1.37q1.08-2,2.1-4.08.62-1.18,1.19-2.38c.26-.52.51-1,.75-1.55a.52.52,0,0,0,.05-.09c.54-1.11,1.07-2.23,1.59-3.35l.2-.43c.6-1.3,1.19-2.6,1.77-3.91L373.73,229.36,311.8,160.2l-82.34,96.44L195,297l-79-71Z"/><path class="cls-5" d="M308,326l34.83,92.24,14.57,38.6,11,29.21,1.57-.77,1.76-.89,2-1.05c1.29-.67,2.57-1.35,3.84-2q8.49-4.59,16.59-9.8c1.07-.68,2.13-1.38,3.19-2.08l.23-.15c1.19-.79,2.37-1.6,3.54-2.41s2.26-1.56,3.37-2.36l.38-.27c1-.73,2-1.47,3-2.22.37-.26.74-.54,1.1-.81,1-.76,2-1.53,3-2.3l.25-.2c1.08-.84,2.16-1.68,3.23-2.54l.2-.16.39-.32q1.37-1.08,2.7-2.19c.23-.19.46-.37.68-.56l2.6-2.19c1.42-1.21,2.82-2.44,4.2-3.67,1-.88,1.95-1.76,2.92-2.65q3.5-3.21,6.86-6.55l.34-.33h0q1-1,2-2l.24-.24,1.16-1.2c1.84-1.88,3.63-3.79,5.39-5.73,2.18-2.38,4.3-4.8,6.38-7.26.77-.92,1.55-1.85,2.31-2.79q.59-.69,1.14-1.4,2.7-3.31,5.27-6.72c.75-1,1.51-2,2.25-3l.37-.51c.78-1.07,1.56-2.15,2.32-3.24.15-.21.3-.41.43-.62.72-1,1.43-2,2.12-3.06s1.48-2.19,2.21-3.3c.35-.54.71-1.08,1.06-1.63.64-1,1.28-2,1.9-3a.34.34,0,0,0,0-.06c.73-1.16,1.45-2.34,2.17-3.52l.36-.6c.61-1,1.22-2.05,1.82-3.08,0,0,0,0,0,0,.3-.52.6-1,.89-1.55,1.21-2.09,2.38-4.21,3.51-6.34.25-.45.49-.91.73-1.37q1.08-2,2.1-4.08.62-1.18,1.19-2.38c.26-.52.51-1,.75-1.55a.52.52,0,0,0,.05-.09c.54-1.11,1.07-2.23,1.59-3.35l.2-.43c.6-1.3,1.19-2.6,1.77-3.91L373.73,229.36,311.8,160.2l30,83.05L375,335Z"/><path class="cls-5" d="M154,299l-33-2,81,87-10-53,44,2-41-36-79-71Z"/><path class="cls-6" d="M195,297l23,20,93.8-156.8Z"/><path class="cls-6" d="M11.13,330.87a254.52,254.52,0,0,0,29,62.85L116,226Z"/><path class="cls-7" d="M74.3,436.33q2,2,3.93,3.87c.65.64,1.3,1.26,2,1.88l.25.23c.77.74,1.55,1.46,2.34,2.18s1.5,1.37,2.25,2l1.74,1.55c.63.56,1.26,1.11,1.89,1.65s1.07.93,1.61,1.38l.65.55L92.48,453c1.46,1.21,2.93,2.41,4.41,3.58l1.45,1.15c.18.15.37.29.55.43h0c.47.38.94.74,1.42,1.1.65.5,1.3,1,2,1.49q1.41,1.07,2.83,2.1c.72.53,1.45,1.06,2.18,1.57q2.82,2,5.71,4l1.63,1.09a255.55,255.55,0,0,0,23.89,14.06l3,1.52.42.21c1.1.55,2.2,1.09,3.31,1.62,1.29.62,2.57,1.23,3.87,1.82,1,.48,2.07.95,3.11,1.41l.57.25,3,1.3q2.33,1,4.66,1.93c1,.41,2.05.82,3.07,1.21q1.92.75,3.84,1.45c1.16.43,2.33.86,3.5,1.27q3.78,1.34,7.6,2.54l1.23.39,2.93.89c1.29.39,2.58.77,3.88,1.13s2.61.72,3.92,1.07c1,.26,1.93.5,2.9.75l1.61.4,3.38.8c1,.23,2,.46,3,.67.7.16,1.4.31,2.11.45,1.23.26,2.46.51,3.7.75,1.07.21,2.13.41,3.21.6q2,.36,4.05.69c.84.14,1.69.28,2.54.4l1.93.29.81.12c1,.14,1.92.27,2.89.39,1.23.17,2.46.32,3.7.46l1,.11,3.23.34.64.06c1.16.12,2.33.22,3.51.32,1.6.13,3.2.25,4.8.35,1.06.07,2.11.13,3.17.18l1.17.06c1.11.05,2.22.1,3.33.13s2.36.08,3.54.1l1.9,0,3.49,0c1.19,0,2.38,0,3.57,0l1.32,0c.88,0,1.77,0,2.65-.06l3.27-.11.82,0,2.47-.12.5,0,2.42-.15,2.4-.17q1.84-.13,3.67-.3c.85-.07,1.7-.15,2.55-.24l1-.1c1.07-.11,2.14-.22,3.2-.35,1.23-.14,2.44-.29,3.66-.45.88-.11,1.75-.23,2.63-.36h0l2-.29.67-.1c1.16-.17,2.32-.36,3.47-.55,1.35-.22,2.69-.46,4-.71s2.54-.47,3.8-.72l2.32-.47q5.77-1.2,11.44-2.66l2.26-.59q2.26-.6,4.51-1.25l2.24-.65q4.53-1.34,9-2.85l2-.67q3.35-1.15,6.65-2.41c1.29-.49,2.57-1,3.85-1.49l.94-.37,1.66-.68q2.43-1,4.84-2l1.53-.67q2.4-1,4.77-2.16l1.5-.71,2.85-1.37,1.57-.77,1.76-.89,2-1.05c1.29-.67,2.57-1.35,3.84-2q8.49-4.59,16.59-9.8c1.07-.68,2.13-1.38,3.19-2.08l.23-.15c1.19-.79,2.37-1.6,3.54-2.41s2.26-1.56,3.37-2.36l.38-.27c1-.73,2-1.47,3-2.22.37-.26.74-.54,1.1-.81,1-.76,2-1.53,3-2.3l.25-.2c1.08-.84,2.16-1.68,3.23-2.54l.2-.16.39-.32q1.37-1.08,2.7-2.19c.23-.19.46-.37.68-.56l2.6-2.19c1.42-1.21,2.82-2.44,4.2-3.67,1-.88,1.95-1.76,2.92-2.65q3.5-3.21,6.86-6.55l.34-.33h0a34.07,34.07,0,0,0-57.67.88,30.69,30.69,0,0,0-22.45-9.74,31,31,0,0,0-6.07.6,37.6,37.6,0,0,0-69.89,2.86A32.22,32.22,0,0,0,238.82,448a24.11,24.11,0,0,0-24.45.16,49.2,49.2,0,0,0-88.49,1.26A37.62,37.62,0,0,0,74.3,436.33Z"/><path class="cls-8" d="M98.9,458.13c.47.38.94.74,1.42,1.1.65.5,1.3,1,2,1.49q1.41,1.07,2.83,2.1c.72.53,1.45,1.06,2.18,1.57q2.82,2,5.71,4l1.63,1.09a255.55,255.55,0,0,0,23.89,14.06l3,1.52.42.21c1.1.55,2.2,1.09,3.31,1.62.92.44,1.84.88,2.76,1.3l1.11.52c1,.48,2.07.95,3.11,1.41l.57.25,3,1.3q2.33,1,4.66,1.93c1,.41,2.05.82,3.07,1.21q1.92.75,3.84,1.45c1.16.43,2.33.86,3.5,1.27q3.78,1.34,7.6,2.54l1.23.39,2.93.89c1.29.39,2.58.77,3.88,1.13s2.61.72,3.92,1.07c1,.26,1.93.5,2.9.75l1.61.4,3.38.8c1,.23,2,.46,3,.67.7.16,1.4.31,2.11.45,1.23.26,2.46.51,3.7.75,1.07.21,2.13.41,3.21.6q2,.36,4.05.69c.84.14,1.69.28,2.54.4l1.93.29.81.12c1,.14,1.92.27,2.89.39,1.23.17,2.46.32,3.7.46l1,.11,3.23.34.64.06c1.16.12,2.33.22,3.51.32,1.6.13,3.2.25,4.8.35,1.06.07,2.11.13,3.17.18l1.17.06c1.11.05,2.22.1,3.33.13s2.36.08,3.54.1l1.9,0,3.49,0c1.19,0,2.38,0,3.57,0l1.32,0c.88,0,1.77,0,2.65-.06l3.27-.11.82,0,2.47-.12.5,0,2.42-.15,2.4-.17q1.84-.13,3.67-.3c.85-.07,1.7-.15,2.55-.24l1-.1c1.07-.11,2.14-.22,3.2-.35,1.23-.14,2.44-.29,3.66-.45.88-.11,1.75-.23,2.63-.36h0l2-.29.67-.1c1.16-.17,2.32-.36,3.47-.55,1.35-.22,2.69-.46,4-.71s2.54-.47,3.8-.72l2.32-.47q5.77-1.2,11.44-2.66l2.26-.59q2.26-.6,4.51-1.25l2.24-.65q4.53-1.34,9-2.85l2-.67q3.35-1.15,6.65-2.41c1.29-.49,2.57-1,3.85-1.49l.94-.37,1.66-.68q2.43-1,4.84-2l1.53-.67c1-.43,2-.87,2.93-1.32.62-.27,1.23-.55,1.84-.84l1.5-.71,2.85-1.37,1.57-.77,1.76-.89,2-1.05c1.29-.67,2.57-1.35,3.84-2q8.49-4.59,16.59-9.8c1.07-.68,2.13-1.38,3.19-2.08l.23-.15c1.19-.79,2.37-1.6,3.54-2.41s2.26-1.56,3.37-2.36l.38-.27c1-.73,2-1.47,3-2.22.37-.26.74-.54,1.1-.81,1-.76,2-1.53,3-2.3l.25-.2c1.08-.84,2.16-1.68,3.23-2.54l.2-.16a31.58,31.58,0,0,0-46.46,8.46A28.51,28.51,0,0,0,342.9,456a34.87,34.87,0,0,0-64.8,2.65,29.89,29.89,0,0,0-38.55,14.71,22.44,22.44,0,0,0-22.67.15,45.61,45.61,0,0,0-82,1.17,34.85,34.85,0,0,0-30-17A35.88,35.88,0,0,0,98.9,458.13Z"/><path class="cls-9" d="M148,488.16l1.11.52c1,.48,2.07.95,3.11,1.41l.57.25,3,1.3q2.33,1,4.66,1.93c1,.41,2.05.82,3.07,1.21q1.92.75,3.84,1.45c1.16.43,2.33.86,3.5,1.27q3.78,1.34,7.6,2.54l1.23.39,2.93.89c1.29.39,2.58.77,3.88,1.13s2.61.72,3.92,1.07c1,.26,1.93.5,2.9.75l1.61.4,3.38.8c1,.23,2,.46,3,.67.7.16,1.4.31,2.11.45,1.23.26,2.46.51,3.7.75,1.07.21,2.13.41,3.21.6q2,.36,4.05.69c.84.14,1.69.28,2.54.4l1.93.29.81.12c1,.14,1.92.27,2.89.39,1.23.17,2.46.32,3.7.46l1,.11,3.23.34.64.06c1.16.12,2.33.22,3.51.32,1.6.13,3.2.25,4.8.35,1.06.07,2.11.13,3.17.18l1.17.06c1.11.05,2.22.1,3.33.13s2.36.08,3.54.1l1.9,0,3.49,0c1.19,0,2.38,0,3.57,0l1.32,0c.88,0,1.77,0,2.65-.06l3.27-.11.82,0,2.47-.12.5,0,2.42-.15,2.4-.17q1.84-.13,3.67-.3c.85-.07,1.7-.15,2.55-.24l1-.1c1.07-.11,2.14-.22,3.2-.35,1.23-.14,2.44-.29,3.66-.45.88-.11,1.75-.23,2.63-.36h0l2-.29.67-.1c1.16-.17,2.32-.36,3.47-.55,1.35-.22,2.69-.46,4-.71s2.54-.47,3.8-.72l2.32-.47q5.77-1.2,11.44-2.66l2.26-.59q2.26-.6,4.51-1.25l2.24-.65q4.53-1.34,9-2.85l2-.67q3.35-1.15,6.65-2.41c1.29-.49,2.57-1,3.85-1.49l.94-.37,1.66-.68q2.43-1,4.84-2l1.53-.67c1-.43,2-.87,2.93-1.32a28.53,28.53,0,0,0-4.84-2.1,28,28,0,0,0-8.88-1.43,28.87,28.87,0,0,0-5.62.56,34.87,34.87,0,0,0-64.8,2.66,29.85,29.85,0,0,0-38.55,14.71,22.44,22.44,0,0,0-22.67.15A45.6,45.6,0,0,0,148,488.16Z"/></g></svg>