<svg id="Capa_1" data-name="Capa 1" xmlns="http://www.w3.org/2000/svg" viewBox="0 0 512 428.2"><defs><style>.cls-1{fill:#6cd7a7;}.cls-2{fill:#00c379;}.cls-3{fill:#ffc473;}.cls-4{fill:#ffaa20;}.cls-5{fill:#ff738e;}.cls-6{fill:#ff3b62;}</style></defs><title>shopping</title><polygon class="cls-1" points="512 402.27 246.82 402.27 285.08 144.04 473.73 144.04 512 402.27"/><polygon class="cls-2" points="512 402.27 376.49 402.27 376.49 144.04 473.73 144.04 512 402.27"/><path class="cls-3" d="M431.25,160.32v51.57h-30V160.32a24.76,24.76,0,0,0-49.53,0v51.57h-30V160.32a54.76,54.76,0,0,1,109.52,0Z" transform="translate(0 -41.9)"/><path class="cls-4" d="M431.25,160.32v51.57h-30V160.32a24.79,24.79,0,0,0-24.76-24.76v-30A54.82,54.82,0,0,1,431.25,160.32Z" transform="translate(0 -41.9)"/><polygon class="cls-5" points="345.43 428.2 0 428.2 50.09 90.15 295.33 90.15 345.43 428.2"/><polygon class="cls-6" points="345.43 428.2 172.71 428.2 172.71 90.15 295.33 90.15 345.43 428.2"/><polygon class="cls-3" points="345.43 428.2 0 428.2 12.61 343.1 332.82 343.1 345.43 428.2"/><path class="cls-3" d="M242.59,111.77v71.17h-30V111.77a39.88,39.88,0,0,0-79.75,0v71.17h-30V111.77a69.87,69.87,0,1,1,139.75,0Z" transform="translate(0 -41.9)"/><path class="cls-4" d="M172.71,71.9v-30a70,70,0,0,1,69.87,69.87v71.17h-30V111.77A39.92,39.92,0,0,0,172.71,71.9Z" transform="translate(0 -41.9)"/><polygon class="cls-4" points="345.43 428.2 172.71 428.2 172.71 343.1 332.82 343.1 345.43 428.2"/></svg>