<svg id="Layer_1" data-name="Layer 1" xmlns="http://www.w3.org/2000/svg" xmlns:xlink="http://www.w3.org/1999/xlink" viewBox="0 0 80 25.04"><defs><style>.cls-1{fill:none;}.cls-2{clip-path:url(#clip-path);}.cls-3{fill:#2394bc;}.cls-4{fill:#efc75e;}</style><clipPath id="clip-path" transform="translate(0 -27.48)"><rect class="cls-1" width="80" height="80"/></clipPath></defs><title>visa</title><g class="cls-2"><path class="cls-3" d="M32.7,27.48l-4,25H35.1l4-25ZM52.06,37.66c-2.24-1.11-3.62-1.85-3.62-3s1.16-2.08,3.7-2.08a11.17,11.17,0,0,1,4.78.93l.58.26.87-5.23a16.2,16.2,0,0,0-5.76-1c-6.34,0-10.8,3.3-10.83,8C41.73,39,45,40.93,47.41,42.09s3.33,2,3.33,3c0,1.62-2,2.37-3.85,2.37a13.05,13.05,0,0,1-6-1.29L40,45.79l-.9,5.43a20,20,0,0,0,7.16,1.29c6.74,0,11.12-3.25,11.17-8.27C57.47,41.5,55.76,39.38,52.06,37.66Zm22.77-10.1h-5a3.18,3.18,0,0,0-3.36,2L57,52.47h6.74l1.85-5H73.1l1,5H80Zm-7.4,14.95c.13,0,2.59-8.09,2.59-8.09l2,8.09Zm-44.11-15L17,44.46l-.68-3.35C15.19,37.25,11.54,33,7.48,31l5.76,21.48H20l10.09-25H23.32Z" transform="translate(0 -27.48)"/><path class="cls-4" d="M14.24,30.7a4.19,4.19,0,0,0-4.17-3.22H.1l-.1.46c7.77,1.92,14.29,7.81,16.4,13.35Z" transform="translate(0 -27.48)"/></g></svg>