<svg id="Layer_1" data-name="Layer 1" xmlns="http://www.w3.org/2000/svg" xmlns:xlink="http://www.w3.org/1999/xlink" viewBox="0 0 46.47 77"><defs><style>.cls-1{fill:none;}.cls-2{clip-path:url(#clip-path);}.cls-3{fill:#56c225;}.cls-4{clip-path:url(#clip-path-2);}</style><clipPath id="clip-path" transform="translate(-1.77)"><rect class="cls-1" y="27" width="50" height="50"/></clipPath><clipPath id="clip-path-2" transform="translate(-1.77)"><rect class="cls-1" x="13.51" width="31.49" height="31.49"/></clipPath></defs><title>add-good</title><g class="cls-2"><path class="cls-3" d="M15,59.92H42.56a5.68,5.68,0,0,0,5.67-5.67V42.53a.13.13,0,0,0,0-.06s0-.05,0-.07,0,0,0-.06a.65.65,0,0,1,0-.07s0,0,0-.06,0,0,0-.06l0-.07,0-.05L48,42l0-.05,0-.06,0-.05,0-.05,0-.05s0,0,0,0l-.05-.05-.05,0-.06,0-.05,0-.06,0-.06,0-.06,0-.06,0-.06,0-.07,0H47L12.12,36.46V31.59a.63.63,0,0,0,0-.14.08.08,0,0,0,0,0s0-.06,0-.09,0-.05,0-.08,0,0,0-.05l0-.09s0,0,0,0A.31.31,0,0,0,12,31s0,0,0,0a.21.21,0,0,0,0-.06l0-.05,0-.05,0-.06,0,0-.06-.06,0,0-.07-.06,0,0-.06-.05-.08-.05,0,0-.13-.06L3.7,27.11a1.39,1.39,0,0,0-1.08,2.56L9.34,32.5V62.9a5.68,5.68,0,0,0,4.94,5.62,5.6,5.6,0,1,0,10.4,2.88,5.49,5.49,0,0,0-.77-2.83H36.38a5.52,5.52,0,0,0-.77,2.83,5.6,5.6,0,1,0,5.6-5.6H15a2.9,2.9,0,0,1-2.9-2.9V59.14A5.74,5.74,0,0,0,15,59.92Zm6.91,11.47a2.83,2.83,0,1,1-2.83-2.83A2.83,2.83,0,0,1,21.92,71.39Zm22.13,0a2.83,2.83,0,1,1-2.83-2.83A2.83,2.83,0,0,1,44.05,71.39ZM42.56,57.15H15a2.9,2.9,0,0,1-2.9-2.9v-15l33.35,4.59V54.24A2.9,2.9,0,0,1,42.56,57.15Z" transform="translate(-1.77)"/></g><g class="cls-4"><path class="cls-3" d="M40,21.2a1.12,1.12,0,1,0-1.57-1.59l-8,8V1.11A1.11,1.11,0,0,0,29.26,0a1.12,1.12,0,0,0-1.13,1.11V27.67l-8-8a1.14,1.14,0,0,0-1.59,0,1.11,1.11,0,0,0,0,1.59l10,10a1.09,1.09,0,0,0,1.57,0Z" transform="translate(-1.77)"/></g></svg>