<svg id="Capa_1" data-name="Capa 1" xmlns="http://www.w3.org/2000/svg" viewBox="0 0 512 447.26"><title>boxes</title><path d="M277.5,409.42a22.51,22.51,0,1,0-13.45,28.84A22.57,22.57,0,0,0,277.5,409.42Zm-18.58,14.74a7.5,7.5,0,1,1,4.48-9.61A7.46,7.46,0,0,1,258.92,424.17Z" transform="translate(0 -32.37)"/><path d="M511.55,340.26l-10.26-28.19a7.47,7.47,0,0,0-3.83-4.21l0,0-.34-.14-.32-.13-.08,0a7.45,7.45,0,0,0-5,0l-24.52,8.92L415,173.16h0l-20.51-56.37a7.5,7.5,0,0,0-14.1,5.13l18,49.33L302,206.3h0l-58.72,21.37L203.94,119.62l51.69-18.81,11.12,30.53a7.52,7.52,0,0,0,7,4.94,7.27,7.27,0,0,0,2.57-.46l37.59-13.68A7.48,7.48,0,0,0,318.8,114v0c0-.19-.07-.39-.12-.58l0-.16a7.44,7.44,0,0,0-.22-.72L307.31,82,359,63.19,370.1,93.72a7.54,7.54,0,0,0,7,4.94,7.34,7.34,0,0,0,2.57-.46,7.51,7.51,0,0,0,4.48-9.61L370.52,51a7.54,7.54,0,0,0-5.89-4.84,7.49,7.49,0,0,0-3.72.36L295.17,70.45h0l-.06,0L257.61,84.12l-.07,0-.11,0-65.67,23.9a7.49,7.49,0,0,0-4.48,9.61l44.46,122.15L274.5,357.33a62.05,62.05,0,0,0-16.94-2.7L149.25,57a37.54,37.54,0,0,0-48.06-22.41h0L5,69.34h0c-.17.06-.34.14-.5.21l-.19.08c-.16.08-.32.17-.47.25L3.58,70c-.15.09-.29.19-.43.29L3,70.42l-.37.31-.19.16c-.12.11-.22.22-.33.34l-.18.18c-.1.11-.2.24-.29.36L1.44,72c-.09.12-.16.24-.24.36L1,72.58c-.07.12-.13.25-.2.38l-.14.26c-.06.12-.11.25-.16.38s-.08.19-.12.29-.08.25-.12.38-.07.21-.09.31-.05.25-.08.38,0,.22-.07.33,0,.26,0,.39,0,.22,0,.34,0,.26,0,.4,0,.23,0,.34,0,.27,0,.4,0,.22,0,.33.05.27.08.4,0,.23.07.34.08.26.12.4.06.22.1.33h0l10.26,28.19c.08.21.18.4.28.61s.13.32.22.47.26.4.39.6.16.26.25.38a7.2,7.2,0,0,0,.52.58c.08.09.16.19.25.27a7.51,7.51,0,0,0,.65.52l.23.19a7.32,7.32,0,0,0,.75.44l.22.13a7.38,7.38,0,0,0,.81.32l.24.09a7.63,7.63,0,0,0,.86.2l.24.06a7.31,7.31,0,0,0,1.14.09l.64,0,.13,0L19,112l.23-.05.4-.09.43-.13.2-.06h0l89.19-32.17L215.28,370a62.48,62.48,0,1,0,103.58,48.28l188.2-68.44h0l.14-.06c.19-.07.38-.15.56-.24l.22-.12.44-.24.23-.16.38-.26.11-.09c.15-.12.31-.25.45-.38l.07-.07c.15-.15.3-.29.44-.45l.08-.1c.13-.15.26-.31.37-.47l0-.05c.13-.18.25-.36.36-.55l.06-.11c.1-.17.19-.35.28-.53l.09-.22c.06-.15.13-.3.18-.45s.06-.21.1-.32.08-.24.11-.37.08-.37.11-.56,0-.1,0-.15A7.47,7.47,0,0,0,511.55,340.26ZM293.22,87.13l8.55,23.49-23.49,8.55-8.55-23.49Zm44.46,122.15,8.55,23.49-23.5,8.55-8.55-23.49Zm-89.27,32.49L300.09,223l11.12,30.53a7.47,7.47,0,0,0,9.61,4.48l37.59-13.68a7.49,7.49,0,0,0,4.48-9.61l-11.11-30.53,51.69-18.81,49.61,136.29L303.42,376a62.88,62.88,0,0,0-9.3-8.69ZM121.06,67.31c0-.12-.1-.23-.15-.35s-.09-.23-.15-.35-.11-.2-.16-.3-.13-.25-.2-.37l-.16-.23c-.08-.13-.17-.26-.26-.38l-.15-.18c-.1-.13-.21-.26-.32-.38l-.14-.14c-.12-.13-.25-.25-.38-.37l-.12-.09c-.15-.12-.29-.25-.45-.36l-.07,0c-.17-.12-.35-.24-.54-.35l0,0a7.53,7.53,0,0,0-3.38-1h0c-.23,0-.46,0-.7,0h-.13c-.2,0-.4,0-.61.06l-.29.06-.44.09-.5.15-.22.07h0L22.25,95,17.11,80.9l89.18-32.16h0a22.52,22.52,0,0,1,28.84,13.45l107,294.08a61.16,61.16,0,0,0-14.09,5.14ZM299.41,437.19A47.51,47.51,0,1,1,301,400.87,47.18,47.18,0,0,1,299.41,437.19ZM317.22,403a63.55,63.55,0,0,0-2.13-7.21,62.19,62.19,0,0,0-3-6.89l177.66-64.61,5.13,14.1Z" transform="translate(0 -32.37)"/></svg>