<svg id="Capa_1" data-name="Capa 1" xmlns="http://www.w3.org/2000/svg" viewBox="0 0 60 57"><title>chat</title><path d="M16,24.5a4,4,0,1,0,4,4A4,4,0,0,0,16,24.5Zm0,6a2,2,0,1,1,2-2A2,2,0,0,1,16,30.5Z" transform="translate(0 -1.5)"/><path d="M30,24.5a4,4,0,1,0,4,4A4,4,0,0,0,30,24.5Zm0,6a2,2,0,1,1,2-2A2,2,0,0,1,30,30.5Z" transform="translate(0 -1.5)"/><path d="M44,24.5a4,4,0,1,0,4,4A4,4,0,0,0,44,24.5Zm0,6a2,2,0,1,1,2-2A2,2,0,0,1,44,30.5Z" transform="translate(0 -1.5)"/><path d="M30,1.5c-16.54,0-30,12.11-30,27A25,25,0,0,0,4.77,43.1C4.18,49.64,2.59,54.49.29,56.79A1,1,0,0,0,1,58.5h.14c.4-.06,9.81-1.41,16.62-5.34A32.55,32.55,0,0,0,30,55.5c16.54,0,30-12.11,30-27S46.54,1.5,30,1.5Zm0,52a30.65,30.65,0,0,1-10.08-1.68C24,49.27,24,49.09,24,48.5a1,1,0,0,0-.49-.86,1,1,0,0,0-1.34.29c-.55.44-2.9,1.94-5,3.25h0c-4.47,2.7-10.48,4.2-13.81,4.88,2.2-3.67,3.09-9,3.44-13.16a1,1,0,0,0-.19-.68A23,23,0,0,1,2,28.5c0-13.78,12.56-25,28-25s28,11.22,28,25S45.44,53.5,30,53.5Z" transform="translate(0 -1.5)"/></svg>