<svg id="Capa_1" data-name="Capa 1" xmlns="http://www.w3.org/2000/svg" viewBox="0 0 479.94 512"><title>page-header-top3</title><path d="M491.73,113,259.26.75a7.5,7.5,0,0,0-6.52,0L20.27,113A7.5,7.5,0,0,0,16,119.72V392.27A7.5,7.5,0,0,0,20.27,399L252.74,511.25a7.5,7.5,0,0,0,6.52,0L491.73,399a7.5,7.5,0,0,0,4.24-6.75V119.73A7.5,7.5,0,0,0,491.73,113ZM256,15.83l215.22,103.9-62.39,30.12a7.44,7.44,0,0,0-1.27-.8L193.8,45.85ZM176.87,54.33l214.9,103.75-44,21.25L132.94,75.62Zm219.93,118v78.55L355.69,270.7V192.15ZM481,387.57l-217.47,105V236.66l51.87-25a7.5,7.5,0,1,0-6.52-13.51L256,223.62l-20.8-10a7.5,7.5,0,1,0-6.52,13.51l19.82,9.57V492.55L31,387.57V131.67l165.6,79.94a7.5,7.5,0,0,0,6.52-13.51L40.78,119.72l74.5-36L340.58,192.52l.1.13v90a7.5,7.5,0,0,0,10.76,6.75l56.11-27.09a7.5,7.5,0,0,0,4.24-6.75V165.07L481,131.68V387.57Z" transform="translate(-16.03 0)"/><path d="M92.93,358.48,58.81,342a7.5,7.5,0,0,0-6.52,13.51L86.4,372a7.5,7.5,0,0,0,6.52-13.51Z" transform="translate(-16.03 0)"/><path d="M124.32,338l-65.46-31.6a7.5,7.5,0,1,0-6.52,13.51l65.47,31.6A7.5,7.5,0,0,0,124.32,338Z" transform="translate(-16.03 0)"/></svg>