<svg id="Capa_1" data-name="Capa 1" xmlns="http://www.w3.org/2000/svg" viewBox="0 0 60 60"><title>page-header-top5</title><path d="M19,31h7.14A4,4,0,1,0,31,26.14V16a1,1,0,0,0-2,0V26.14A4,4,0,0,0,26.14,29H19a1,1,0,0,0,0,2Zm11-3a2,2,0,1,1-2,2A2,2,0,0,1,30,28Z"/><path d="M30,10a1,1,0,0,0,1-1V8a1,1,0,0,0-2,0V9A1,1,0,0,0,30,10Z"/><path d="M30,50a1,1,0,0,0-1,1v1a1,1,0,0,0,2,0V51A1,1,0,0,0,30,50Z"/><path d="M51,29a1,1,0,0,0,0,2h1a1,1,0,0,0,0-2Z"/><path d="M8,31H9a1,1,0,0,0,0-2H8a1,1,0,0,0,0,2Z"/><path d="M50.29,10.71a1,1,0,0,0,.71-.29l.71-.71a1,1,0,0,0-1.41-1.41L49.59,9a1,1,0,0,0,.71,1.71Z"/><path d="M9.15,49.44l-.71.71a1,1,0,1,0,1.41,1.41l.71-.71a1,1,0,1,0-1.41-1.41Z"/><path d="M50.15,51.56a1,1,0,1,0,1.41-1.41l-.71-.71a1,1,0,1,0-1.41,1.41Z"/><path d="M8.79,10.21a1,1,0,0,0,1.41-1.41L9.5,8.09A1,1,0,0,0,8.09,9.5Z"/><path d="M0,0V60H60V0ZM58,58H2V2H58Z"/></svg>