<svg id="Capa_1" data-name="Capa 1" xmlns="http://www.w3.org/2000/svg" viewBox="0 0 60 44"><title>page-header-top4</title><path d="M48,14a7,7,0,0,0-3.5.95,7,7,0,1,0,0,12.11A7,7,0,1,0,48,14Zm-2,7a5,5,0,0,1-1.5,3.56,5,5,0,0,1,0-7.12A5,5,0,0,1,46,21ZM36,21a5,5,0,0,1,5-5,5,5,0,0,1,1.79.34,7,7,0,0,0,0,9.31A5,5,0,0,1,41,26,5,5,0,0,1,36,21Zm12,5a5,5,0,0,1-1.79-.34,7,7,0,0,0,0-9.31A5,5,0,0,1,48,16a5,5,0,0,1,0,10Z" transform="translate(0 -8)"/><path d="M55.78,8H4.22A4.22,4.22,0,0,0,0,12.22V47.78A4.22,4.22,0,0,0,4.22,52H55.78A4.22,4.22,0,0,0,60,47.78V12.22A4.22,4.22,0,0,0,55.78,8ZM58,47.78A2.22,2.22,0,0,1,55.78,50H4.22A2.22,2.22,0,0,1,2,47.78V12.22A2.22,2.22,0,0,1,4.22,10H55.78A2.22,2.22,0,0,1,58,12.22Z" transform="translate(0 -8)"/><path d="M6,18h9a1,1,0,0,0,0-2H6a1,1,0,0,0,0,2Z" transform="translate(0 -8)"/><path d="M28,16H19a1,1,0,0,0,0,2h9a1,1,0,0,0,0-2Z" transform="translate(0 -8)"/><path d="M6,23H7a1,1,0,0,0,0-2H6a1,1,0,0,0,0,2Z" transform="translate(0 -8)"/><path d="M11,21a1,1,0,0,0,0,2h2a1,1,0,0,0,0-2Z" transform="translate(0 -8)"/><path d="M19,22a1,1,0,0,0-1-1H17a1,1,0,0,0,0,2h1A1,1,0,0,0,19,22Z" transform="translate(0 -8)"/><path d="M24,23a1,1,0,0,0,0-2H22a1,1,0,0,0,0,2Z" transform="translate(0 -8)"/><path d="M27.3,21.29A1,1,0,0,0,27,22a1,1,0,0,0,.29.71A1,1,0,0,0,29,22a1,1,0,0,0-.29-.7A1,1,0,0,0,27.3,21.29Z" transform="translate(0 -8)"/><path d="M5,45H16V37H5Zm2-6h7v4H7Z" transform="translate(0 -8)"/><path d="M18,45H29V37H18Zm2-6h7v4H20Z" transform="translate(0 -8)"/><path d="M31,45H42V37H31Zm2-6h7v4H33Z" transform="translate(0 -8)"/><path d="M44,45H55V37H44Zm2-6h7v4H46Z" transform="translate(0 -8)"/></svg>