<svg id="Capa_1" data-name="Capa 1" xmlns="http://www.w3.org/2000/svg" viewBox="0 0 310.8 410.34"><title>page-header-top1</title><path d="M205.21,0A155.6,155.6,0,0,0,49.77,155.52c0,83.52,143.36,245.36,149.44,252.16a8,8,0,0,0,11.92,0C217.21,400.8,360.57,239,360.57,155.52A155.6,155.6,0,0,0,205.21,0Zm0,390.16c-27.36-32-139.44-166.32-139.44-234.72a139.44,139.44,0,0,1,278.88,0C344.65,223.84,232.57,358.32,205.21,390.16Z" transform="translate(-49.77)"/><path d="M208,78a84.24,84.24,0,1,0,84.32,84.24A84.24,84.24,0,0,0,208,78Zm0,152.56a68.24,68.24,0,1,1,68.24-68.24A68.24,68.24,0,0,1,208,230.56Z" transform="translate(-49.77)"/></svg>