<svg id="Capa_1" data-name="Capa 1" xmlns="http://www.w3.org/2000/svg" viewBox="0 0 275.33 275.33"><title>page-header-top2</title><path d="M137.67,168a30.35,30.35,0,1,0-30.35-30.35A30.39,30.39,0,0,0,137.67,168Zm0-48.71a18.35,18.35,0,1,1-18.35,18.35A18.37,18.37,0,0,1,137.67,119.31Z"/><path d="M269.33,131.67H245.56A108.21,108.21,0,0,0,143.67,29.78V6a6,6,0,0,0-12,0V35.6a6,6,0,0,0,6,6A96,96,0,1,1,96.26,51a6,6,0,1,0-5.18-10.82,108,108,0,0,0-61.29,91.53H6a6,6,0,0,0,0,12H29.77A108.21,108.21,0,0,0,131.67,245.56v23.77a6,6,0,0,0,12,0V245.56A108.21,108.21,0,0,0,245.56,143.67h23.77a6,6,0,0,0,0-12Z"/></svg>