<svg id="Layer_1" data-name="Layer 1" xmlns="http://www.w3.org/2000/svg" viewBox="0 0 463.01 463.01"><title>phone-call</title><path d="M462.69,381.08a35.53,35.53,0,0,0-17.62-26.32L330.85,289a35.84,35.84,0,0,0-43.16,5.71l-22.5,22.5a16.49,16.49,0,0,1-22,1.23,650.29,650.29,0,0,1-51.91-46.68,650.5,650.5,0,0,1-46.68-51.91,16.49,16.49,0,0,1,1.23-22l22.5-22.5A35.84,35.84,0,0,0,174,132.16L108.24,17.94a35.78,35.78,0,0,0-56.31-7.45L18,44.39C-5.63,68.05-6,111.33,17,166.27,39,219.08,80.27,277.23,133,330s110.9,94,163.72,116.07c27,11.31,51.25,17,71.7,17,21.09,0,38.16-6,50.18-18l33.9-33.9a35.53,35.53,0,0,0,10.17-30ZM323.36,302l114.23,65.77a20.78,20.78,0,0,1,6.35,30.35l-151.8-86.64,6.17-6.17A20.82,20.82,0,0,1,323.36,302ZM80,15.19A20.63,20.63,0,0,1,95.24,25.42L161,139.65a20.81,20.81,0,0,1-3.32,25.07L152,170.38,64.92,19.07A20.53,20.53,0,0,1,77.18,15a21.18,21.18,0,0,1,2.78.18ZM408,434.38c-18.8,18.8-57.24,18-105.48-2.16C251.47,410.86,195,370.79,143.63,319.38S52.15,211.54,30.8,160.48C10.62,112.24,9.84,73.8,28.63,55L53.8,29.83,141,181.36l-5.85,5.85a31.47,31.47,0,0,0-2.31,42,665.49,665.49,0,0,0,47.76,53.11,665.84,665.84,0,0,0,53.11,47.77,31.47,31.47,0,0,0,42-2.31l5.34-5.34,152,86.76L408,434.37Z" transform="translate(0 0)"/></svg>