<svg id="Layer_1" data-name="Layer 1" xmlns="http://www.w3.org/2000/svg" viewBox="0 0 166.78 173.73"><title>phone-book</title><path d="M115.11,95a3.46,3.46,0,0,0-4.52-.34l-5,3.69a12,12,0,0,1-14.87-1.14L76.28,82.8a12,12,0,0,1-1.14-14.87l3.69-5a3.47,3.47,0,0,0-.34-4.52L62.95,42.87a3.46,3.46,0,0,0-4.78-.12L47.35,52.48a22.81,22.81,0,0,0-2.67,30.63c.88,1.36,5.07,7.17,21.82,23.92s22.51,20.9,23.9,21.8a22,22,0,0,0,13.79,4.77A22.68,22.68,0,0,0,121,126.17l9.73-10.82a3.47,3.47,0,0,0-.12-4.78Zm.77,26.49a15.61,15.61,0,0,1-21.25,1.79,5.23,5.23,0,0,0-.43-.3c-.2-.12-5.09-3.2-22.79-20.9S50.63,79.53,50.54,79.38a3.69,3.69,0,0,0-.31-.45A15.77,15.77,0,0,1,52,57.64l8.37-7.53,11.1,11.1-1.91,2.58a19,19,0,0,0,1.81,23.92l14.45,14.45A18.73,18.73,0,0,0,109.73,104l2.58-1.91,11.1,11.1Z" transform="translate(-3.47)"/><path d="M166.78,27.8H149.4V3.47A3.47,3.47,0,0,0,145.93,0H17.37A3.47,3.47,0,0,0,13.9,3.47V20.85H3.47V27.8H13.9v6.95H3.47v6.95H13.9v6.95H3.47v6.95H13.9v6.95H3.47v6.95H13.9v6.95H3.47v6.95H13.9v6.95H3.47v6.95H13.9v6.95H3.47v6.95H13.9v6.95H3.47v6.95H13.9V132H3.47V139H13.9v6.95H3.47v6.95H13.9v17.37a3.47,3.47,0,0,0,3.48,3.48H145.93a3.47,3.47,0,0,0,3.48-3.48V83.39h17.37a3.47,3.47,0,0,0,3.48-3.47V31.27A3.48,3.48,0,0,0,166.78,27.8Zm-145.93,139v-13.9h6.95v-6.95H20.84V139h6.95V132H20.84v-6.95h6.95v-6.95H20.84v-6.95h6.95v-6.95H20.84V97.29h6.95V90.34H20.84v-7h6.95V76.44H20.84V69.49h6.95V62.54H20.84V55.59h6.95V48.65H20.84V41.7h6.95V34.75H20.84V27.8h6.95V20.85H20.84V6.95H142.46V166.78ZM163.3,76.44H149.4V59.07h13.9Zm0-24.32H149.4V34.75h13.9Z" transform="translate(-3.47)"/></svg>