<svg id="Capa_1" data-name="Capa 1" xmlns="http://www.w3.org/2000/svg" viewBox="0 0 512 455"><title>purse</title><path d="M489.5,218.49H482V116a47.55,47.55,0,0,0-47.5-47.5h-206l-139-39.7-.12,0-.12,0-.25,0-.39-.08-.35,0-.41,0h-.75l-.31,0-.43,0-.29,0-.43.09-.26.07-.43.14-.24.09-.43.18-.22.11-.42.22-.21.13-.39.26-.2.15-.36.3-.19.18-.32.32-.19.21-.28.33-.18.25-.23.34-.18.3-.18.34-.16.34c-.05.11-.1.23-.14.34s-.09.25-.13.37-.06.16-.08.24,0,.08,0,.12l0,.12L71.65,68.49H47.51A47.55,47.55,0,0,0,0,115.83c0,.05,0,.1,0,.16V376a7.5,7.5,0,0,0,15,0V150.58a47.32,47.32,0,0,0,32.51,12.91h387A32.54,32.54,0,0,1,467,196v52.5H384.48c-.22,0-.43,0-.65,0s-.48.05-.71.1l-.1,0c-.2,0-.39.09-.58.15l-.13,0-.5.18-.19.07-.4.19-.26.13-.3.18-.33.2-.21.15-.38.28-.15.14c-.13.11-.26.23-.39.35l-.21.23c-.1.1-.2.21-.29.32s-.3.38-.44.59h0l-40,60a7.38,7.38,0,0,0-.7,1.32c-.07.17-.13.35-.18.52l-.05.16c-.06.18-.1.37-.14.56l0,.15c0,.17-.05.34-.08.51s0,.14,0,.22,0,.28,0,.42,0,.21,0,.32,0,.21,0,.31,0,.29,0,.43,0,.14,0,.21,0,.34.08.52l0,.14c0,.19.08.38.14.56l.05.16c.06.17.11.35.18.52a7.47,7.47,0,0,0,.7,1.32l40,60h0a7.75,7.75,0,0,0,.52.69l.19.21q.19.21.4.4l.24.22c.15.13.3.24.45.36l.21.15a7.49,7.49,0,0,0,.7.42l.18.09c.19.1.39.18.59.26l.23.09.58.18.24.06.62.11.23,0a7.54,7.54,0,0,0,.79,0H467V436a32.54,32.54,0,0,1-32.5,32.5h-387A32.54,32.54,0,0,1,15,436s0-.08,0-.12V406a7.5,7.5,0,0,0-15,0v30c0,.08,0,.15,0,.23A47.55,47.55,0,0,0,47.51,483.5h387A47.55,47.55,0,0,0,482,436h0V383.49h7.5A22.52,22.52,0,0,0,512,361V241A22.53,22.53,0,0,0,489.5,218.49ZM92.9,45.34,225.24,83.15h0L314,108.5H77.11ZM467,161.39a47.31,47.31,0,0,0-32.5-12.91h-387a32.5,32.5,0,1,1,0-65H67.9l-6.25,25H47.51a7.5,7.5,0,1,0,0,15h377a7.5,7.5,0,0,0,0-15H368.55L281,83.49H434.51A32.54,32.54,0,0,1,467,116ZM497,361h0a7.5,7.5,0,0,1-7.5,7.5h-101l-35-52.49,35-52.5h101l.31,0A22.41,22.41,0,0,0,497,262.2V361Zm-7.5-112.51H482v-15h7.5a7.5,7.5,0,0,1,0,15Z" transform="translate(0 -28.5)"/><path d="M414.5,288.49A27.5,27.5,0,1,0,442,316,27.53,27.53,0,0,0,414.5,288.49Zm0,40A12.5,12.5,0,1,1,427,316,12.51,12.51,0,0,1,414.5,328.49Z" transform="translate(0 -28.5)"/></svg>