<svg id="Capa_1" data-name="Capa 1" xmlns="http://www.w3.org/2000/svg" viewBox="0 0 480 480.11"><title>sales</title><path d="M394.43,256.36a8,8,0,0,0-2.38-.36h-192a8,8,0,0,0-7.66,10.29l33.39,112a8,8,0,0,0,7.66,5.71h123.7a8,8,0,0,0,7.64-5.62l34.91-112A8,8,0,0,0,394.43,256.36ZM351.27,368H239.41l-28.62-96H381.18Z" transform="translate(-0.05 0)"/><path d="M440.05,248a8,8,0,0,0-7.51,5.23L378.48,400H216.05v16h40v17.47a24,24,0,1,0,16,0V416h72v17.47a24,24,0,1,0,16,0V416h24a8,8,0,0,0,7.51-5.23L445.63,264h34.42V248Zm-176,216a8,8,0,1,1,8-8A8,8,0,0,1,264.05,464Zm88,0a8,8,0,1,1,8-8A8,8,0,0,1,352.05,464Z" transform="translate(-0.05 0)"/><rect x="248" y="296" width="96" height="16"/><rect x="256" y="328" width="80" height="16"/><path d="M237.71,146.34l-144-144a8,8,0,0,0-11.31,0h0l-80,80a8,8,0,0,0,0,11.31h0l144,144a8,8,0,0,0,5.66,2.34h80a8,8,0,0,0,8-8h0V152A8,8,0,0,0,237.71,146.34ZM224.05,224H155.37L19.37,88,88.05,19.31l136,136Z" transform="translate(-0.05 0)"/><path d="M409.72,70.46a22.06,22.06,0,0,0-31.2-.12l-.12.13c-11,11-5,22.44-1.43,29.27,4,7.54,3.59,8.33,1.43,10.49a6.06,6.06,0,0,1-8.57-8.57L358.51,90.35a22.06,22.06,0,0,0,31.19,31.19c11-11,5-22.42,1.42-29.24-4-7.55-3.59-8.35-1.42-10.52a6.06,6.06,0,0,1,8.57,8.57l11.31,11.31A22.06,22.06,0,0,0,409.72,70.46Z" transform="translate(-0.05 0)"/><path d="M99,386.34l11.31,11.31a19.72,19.72,0,1,0-27.77-28l-.11.11a20,20,0,0,0-1.43,26c3,5.65,2.73,5.88,1.43,7.18a3.72,3.72,0,1,1-5.27-5.24v0L65.83,386.34A19.7,19.7,0,0,0,79.77,420h0a19.65,19.65,0,0,0,13.94-5.76,20,20,0,0,0,1.42-25.93c-3-5.66-2.73-5.9-1.42-7.21A3.72,3.72,0,1,1,99,386.33Z" transform="translate(-0.05 0)"/><path d="M477.71,58.35h0l-56-56a8,8,0,0,0-11.31,0h0l-104,104a8,8,0,0,0-2.34,5.66v56a8,8,0,0,0,8,8h56a8,8,0,0,0,5.66-2.34l104-104A8,8,0,0,0,477.71,58.35ZM364.74,160H320.05V115.31l96-96L460.74,64Z" transform="translate(-0.05 0)"/><path d="M152.06,320h-56a8,8,0,0,0-5.66,2.34l-88,88a8,8,0,0,0,0,11.31h0l56,56a8,8,0,0,0,11.31,0h0l88-88a8,8,0,0,0,2.34-5.66V328A8,8,0,0,0,152.06,320Zm-8,60.69-80,80L19.37,416l80-80h44.69v44.69Z" transform="translate(-0.05 0)"/><path d="M188.05,176a12,12,0,1,0,12,12A12,12,0,0,0,188.05,176Z" transform="translate(-0.05 0)"/><path d="M161.6,150.24A26.69,26.69,0,0,0,156.9,119c-13.27-13.28-26.87-6.15-35.87-1.42-9.72,5.1-12.66,5.9-17.15,1.42a10.75,10.75,0,0,1,15.2-15.2L130.4,92.52a26.69,26.69,0,0,0-31.21-4.7L85.71,74.34,74.4,85.66,87.88,99.14a26.69,26.69,0,0,0,4.7,31.21c13.29,13.3,26.9,6.16,35.9,1.43,9.69-5.1,12.63-5.9,17.12-1.43a10.74,10.74,0,0,1-15.19,15.2l-11.31,11.31a26.39,26.39,0,0,0,31.2,4.7l12.11,12.11,11.31-11.31Z" transform="translate(-0.05 0)"/><rect x="296" y="192" width="16" height="16"/><rect x="296" y="224" width="16" height="16"/><rect x="160" y="256" width="16" height="16"/><rect x="160" y="288" width="16" height="16"/></svg>