<svg viewBox="0 0 50 77" fill="none" xmlns="http://www.w3.org/2000/svg">
<g clip-path="url(#clip0)">
<path d="M39.993 21.205C40.437 20.776 40.437 20.062 39.993 19.618C39.564 19.189 38.85 19.189 38.422 19.618L30.375 27.665V1.111C30.374 0.492 29.882 0 29.263 0C28.644 0 28.136 0.492 28.136 1.111V27.665L20.104 19.618C19.66 19.189 18.945 19.189 18.517 19.618C18.073 20.062 18.073 20.777 18.517 21.205L28.469 31.157C28.898 31.601 29.612 31.601 30.04 31.157L39.993 21.205Z" fill="white"/>
</g>
<g clip-path="url(#clip1)">
<path d="M15.0101 59.9212H42.5601C45.684 59.9212 48.2325 57.3727 48.2325 54.2488V42.6575C48.2325 42.6472 48.2325 42.6266 48.2325 42.6164C48.2325 42.5855 48.2325 42.565 48.2325 42.5342C48.2325 42.5136 48.2325 42.4931 48.2222 42.4725C48.2222 42.4519 48.2119 42.4211 48.2119 42.4006C48.2119 42.38 48.2017 42.3595 48.2017 42.3389C48.1914 42.3184 48.1914 42.2978 48.1811 42.267C48.1708 42.2464 48.1708 42.2259 48.1606 42.2053C48.1503 42.1848 48.1503 42.1642 48.14 42.1437C48.1297 42.1231 48.1195 42.1026 48.1092 42.0717C48.0989 42.0512 48.0886 42.0306 48.0784 42.0204C48.0681 41.9998 48.0578 41.9792 48.0475 41.9587C48.0373 41.9381 48.027 41.9279 48.0167 41.9073C48.0064 41.8868 47.9859 41.8662 47.9756 41.8457C47.9653 41.8251 47.955 41.8148 47.9345 41.7943C47.9242 41.7737 47.9037 41.7635 47.8934 41.7429C47.8831 41.7223 47.8626 41.7121 47.8523 41.6915C47.842 41.671 47.8215 41.6607 47.8112 41.6504C47.7906 41.6299 47.7804 41.6196 47.7598 41.599C47.7393 41.5888 47.729 41.5682 47.7084 41.5579C47.6879 41.5477 47.6673 41.5271 47.6468 41.5168C47.6262 41.5066 47.6159 41.4963 47.5954 41.486C47.5748 41.4757 47.5543 41.4654 47.5337 41.4449C47.5132 41.4346 47.4926 41.4243 47.4721 41.4141C47.4515 41.4038 47.431 41.3935 47.4104 41.3832C47.3899 41.373 47.3693 41.3627 47.3488 41.3524C47.3282 41.3421 47.3077 41.3421 47.2871 41.3319C47.2666 41.3216 47.2357 41.3113 47.2152 41.3113C47.1946 41.3113 47.1741 41.301 47.1638 41.301C47.133 41.2908 47.1124 41.2908 47.0816 41.2908C47.0713 41.2908 47.061 41.2805 47.0405 41.2805L12.1225 36.461V31.5902C12.1225 31.5388 12.1225 31.4874 12.1122 31.4463C12.1122 31.436 12.1122 31.4258 12.102 31.4052C12.102 31.3744 12.0917 31.3436 12.0917 31.3127C12.0814 31.2819 12.0814 31.2613 12.0711 31.2305C12.0711 31.21 12.0609 31.1997 12.0609 31.1791C12.0506 31.1483 12.0403 31.1175 12.03 31.0867C12.03 31.0764 12.0198 31.0558 12.0198 31.0455C12.0095 31.0147 11.9992 30.9942 11.9787 30.9633C11.9684 30.9531 11.9684 30.9325 11.9581 30.9222C11.9478 30.9017 11.9375 30.8811 11.917 30.8606C11.9067 30.84 11.8964 30.8297 11.8862 30.8092C11.8759 30.7886 11.8656 30.7784 11.8553 30.7578C11.8451 30.7373 11.8245 30.7167 11.8142 30.6962C11.804 30.6859 11.7937 30.6756 11.7834 30.6653C11.7629 30.6448 11.7423 30.6242 11.7218 30.6037C11.7115 30.5934 11.7012 30.5831 11.6909 30.5728C11.6704 30.5523 11.6498 30.5317 11.619 30.5112C11.6087 30.5009 11.5882 30.4906 11.5779 30.4804C11.5573 30.4598 11.5368 30.4495 11.5162 30.429C11.4854 30.4084 11.4546 30.3879 11.434 30.3776C11.4237 30.3673 11.4135 30.3673 11.4032 30.3571C11.3621 30.3365 11.3107 30.3159 11.2696 30.2954L3.69617 27.1098C2.98712 26.8118 2.17532 27.1407 1.87731 27.8497C1.57931 28.5587 1.90814 29.3706 2.61719 29.6686L9.33771 32.5047V38.7937V39.7905V47.4358V54.2694V62.9013C9.33771 65.7785 11.4957 68.1626 14.2805 68.5222C13.777 69.3649 13.479 70.3514 13.479 71.3995C13.479 74.4926 15.9966 77 19.0794 77C22.1622 77 24.6798 74.4823 24.6798 71.3995C24.6798 70.3719 24.4024 69.3957 23.9091 68.5736H36.3842C35.891 69.406 35.6135 70.3719 35.6135 71.3995C35.6135 74.4926 38.1312 77 41.214 77C44.2968 77 46.8144 74.4823 46.8144 71.3995C46.8144 68.3167 44.2968 65.7991 41.214 65.7991H15.0101C13.407 65.7991 12.1122 64.494 12.1122 62.9013V59.1402C12.9549 59.6335 13.9517 59.9212 15.0101 59.9212ZM21.9156 71.3893C21.9156 72.9512 20.6413 74.2152 19.0897 74.2152C17.538 74.2152 16.2638 72.9409 16.2638 71.3893C16.2638 69.8376 17.538 68.5634 19.0897 68.5634C20.6413 68.5634 21.9156 69.8273 21.9156 71.3893ZM44.0502 71.3893C44.0502 72.9512 42.7759 74.2152 41.2242 74.2152C39.6726 74.2152 38.3983 72.9409 38.3983 71.3893C38.3983 69.8376 39.6726 68.5634 41.2242 68.5634C42.7759 68.5634 44.0502 69.8273 44.0502 71.3893ZM42.5601 57.1467H15.0101C13.407 57.1467 12.1122 55.8416 12.1122 54.2488V47.4153V39.7699V39.2561L45.458 43.8495V54.2386C45.458 55.8519 44.1529 57.1467 42.5601 57.1467Z" fill="white"/>
</g>
<defs>
<clipPath id="clip0">
<rect width="31.49" height="31.49" fill="white" transform="translate(45) rotate(90)"/>
</clipPath>
<clipPath id="clip1">
<rect width="50" height="50" fill="white" transform="translate(0 27)"/>
</clipPath>
</defs>
</svg>
